<?xml version="1.0" encoding="UTF-8" standalone="no"?>
<svg
   xmlns:dc="http://purl.org/dc/elements/1.1/"
   xmlns:cc="http://creativecommons.org/ns#"
   xmlns:rdf="http://www.w3.org/1999/02/22-rdf-syntax-ns#"
   xmlns:svg="http://www.w3.org/2000/svg"
   xmlns="http://www.w3.org/2000/svg"
   viewBox="0 0 1093.3333 416"
   height="416"
   width="1093.3333"
   xml:space="preserve"
   id="svg2"
   version="1.1"><metadata
     id="metadata8"><rdf:RDF><cc:Work
         rdf:about=""><dc:format>image/svg+xml</dc:format><dc:type
           rdf:resource="http://purl.org/dc/dcmitype/StillImage" /></cc:Work></rdf:RDF></metadata><defs
     id="defs6"><clipPath
       id="clipPath328"
       clipPathUnits="userSpaceOnUse"><path
         id="path326"
         d="m 1984.02,1843.34 c -32.86,281.93 -86.54,334.27 -86.54,334.27 h -0.01 c -12.15,29.01 -40.79,49.4 -74.21,49.4 -7.25,0 -14.24,-1.05 -20.92,-2.85 v 0.08 l -0.78,-0.28 c -3.82,-1.07 -7.52,-2.39 -11.08,-3.99 l -134.71,-48.46 c -10.81,2.35 -21.61,4.69 -32.42,7.04 -28.59,6.21 -57.14,13.27 -85.91,18.65 -31.98,5.99 -46.77,-17.77 -58.15,-43.15 l -68.51,17.35 c 0,0 -38.42,-60.37 -68.41,-317.63 l 100.45,-2.84 c 1.48,-49.96 4.48,-109.09 9.48,-179.35 192.84,-34.5 298.4,-24.7 298.4,-24.7 l 72.56,186.29 -0.8,15.03 161.56,-4.86" /></clipPath><clipPath
       id="clipPath408"
       clipPathUnits="userSpaceOnUse"><path
         id="path406"
         d="m 1585.74,799.031 c 51.65,-98.371 107.67,-191.172 107.67,-191.172 l -7.09,-60 -75.81,-29.41 -155.87,178.211 131.1,102.371" /></clipPath><clipPath
       id="clipPath442"
       clipPathUnits="userSpaceOnUse"><path
         id="path440"
         d="M 1479.49,668.34 C 1431.2,568.281 1385.36,499.879 1385.36,499.879 l -47.55,-32.328 -74.69,32.64 56.06,212.528 160.31,-44.379" /></clipPath></defs><g
     transform="matrix(1.3333333,0,0,-1.3333333,0,416)"
     id="g10"><g
       transform="scale(0.1)"
       id="g12"><path
         id="path14"
         style="fill:#3660b6;fill-opacity:1;fill-rule:nonzero;stroke:none"
         d="M 0,0 H 8200 V 3120 H 0 Z" /><path
         id="path16"
         style="fill:#fab927;fill-opacity:1;fill-rule:nonzero;stroke:none"
         d="M 7426.89,772.43 H 6242.1 v 300.06 H 7426.89 V 772.43" /><path
         id="path18"
         style="fill:#fab927;fill-opacity:1;fill-rule:nonzero;stroke:none"
         d="m 5907.26,429.781 c -32.21,0 -58.4,26.199 -58.4,58.399 0,32.211 26.19,58.398 58.4,58.398 32.2,0 58.39,-26.187 58.39,-58.387 0,-32.211 -26.19,-58.41 -58.39,-58.41" /><path
         id="path20"
         style="fill:#3f68bb;fill-opacity:1;fill-rule:evenodd;stroke:none"
         d="m 5907.81,463.73 c -5.16,0 -9.97,1.532 -13.99,4.18 l -9.77,-3.121 3.17,9.383 c -3.05,4.168 -4.85,9.277 -4.85,14.808 l 0.13,2.45 c 1.25,12.781 12.13,22.789 25.31,22.789 13.36,0 24.34,-10.27 25.36,-23.27 l 0.09,-1.969 c 0,-13.929 -11.42,-25.25 -25.45,-25.25 z m 30.25,26.008 c -0.41,16.231 -13.78,29.274 -30.25,29.274 -16.26,0 -29.51,-12.742 -30.22,-28.723 l -0.03,-1.309 c 0,-5.679 1.58,-10.98 4.33,-15.519 l -5.45,-16.102 16.76,5.321 c 4.33,-2.371 9.32,-3.731 14.61,-3.731 16.72,0 30.26,13.442 30.26,30.031 l -0.01,0.758" /><path
         id="path22"
         style="fill:#3f68bb;fill-opacity:1;fill-rule:evenodd;stroke:none"
         d="m 5921.68,482.922 -5.07,2.387 -1.67,-0.368 -2.35,-2.882 -1.62,-0.18 c -0.73,0.371 -3.13,1.133 -5.96,3.652 -2.2,1.949 -3.7,4.348 -4.12,5.09 l 0.32,1.5 1.12,1.289 0.27,0.352 0.47,0.879 -0.06,1.289 c -0.18,0.371 -1.67,4 -2.29,5.468 -0.61,1.473 -1.23,1.223 -1.67,1.223 l -1.42,0.07 -1.98,-0.921 c -0.68,-0.739 -2.59,-2.52 -2.59,-6.149 l 0.38,-2.512 c 0.75,-2.589 2.36,-4.73 2.65,-5.097 0.37,-0.481 5.12,-8.16 12.66,-11.121 7.55,-2.93 7.55,-1.95 8.91,-1.821 1.36,0.11 4.39,1.77 5,3.489 0.62,1.722 0.62,3.191 0.44,3.5 l -1.42,0.863" /><path
         id="path24"
         style="fill:#fab927;fill-opacity:1;fill-rule:nonzero;stroke:none"
         d="m 6082.52,429.781 c -32.2,0 -58.4,26.199 -58.4,58.399 0,32.211 26.2,58.398 58.4,58.398 32.2,0 58.4,-26.187 58.4,-58.387 0,-32.211 -26.2,-58.41 -58.4,-58.41" /><path
         id="path26"
         style="fill:#3f68bb;fill-opacity:1;fill-rule:nonzero;stroke:none"
         d="m 6052.58,469.379 c 5.44,-3.488 11.89,-5.527 18.83,-5.527 22.81,0 35.69,19.269 34.91,36.539 2.4,1.73 4.49,3.898 6.13,6.359 -2.2,-0.969 -4.57,-1.629 -7.05,-1.93 2.53,1.52 4.48,3.918 5.4,6.789 -2.38,-1.398 -5.01,-2.429 -7.8,-2.98 -2.24,2.391 -5.43,3.883 -8.97,3.883 -7.93,0 -13.75,-7.403 -11.96,-15.082 -10.21,0.511 -19.26,5.398 -25.32,12.832 -3.22,-5.524 -1.67,-12.742 3.8,-16.391 -2.01,0.059 -3.91,0.609 -5.56,1.527 -0.14,-5.687 3.94,-11.007 9.85,-12.199 -1.73,-0.469 -3.63,-0.578 -5.55,-0.207 1.56,-4.883 6.1,-8.433 11.48,-8.531 -5.17,-4.051 -11.67,-5.852 -18.19,-5.082" /><path
         id="path28"
         style="fill:#fab927;fill-opacity:1;fill-rule:nonzero;stroke:none"
         d="m 6257.78,429.781 c -32.21,0 -58.4,26.199 -58.4,58.399 0,32.211 26.19,58.398 58.4,58.398 32.2,0 58.4,-26.187 58.4,-58.387 0,-32.211 -26.2,-58.41 -58.4,-58.41" /><path
         id="path30"
         style="fill:#3f68bb;fill-opacity:1;fill-rule:nonzero;stroke:none"
         d="m 6249.21,454.219 h 13.68 v 34.25 h 9.54 l 1.02,11.472 h -10.56 c 0,0 0,4.278 0,6.528 0,2.711 0.55,3.769 3.16,3.769 2.1,0 7.4,0 7.4,0 v 11.903 c 0,0 -7.8,0 -9.47,0 -10.18,0 -14.77,-4.481 -14.77,-13.063 0,-7.469 0,-9.137 0,-9.137 h -7.11 v -11.609 h 7.11 v -34.113" /><path
         id="path32"
         style="fill:#fab927;fill-opacity:1;fill-rule:nonzero;stroke:none"
         d="m 6433.03,429.781 c -32.2,0 -58.39,26.199 -58.39,58.399 0,32.211 26.19,58.398 58.39,58.398 32.21,0 58.4,-26.187 58.4,-58.387 0,-32.211 -26.19,-58.41 -58.4,-58.41" /><path
         id="path34"
         style="fill:#3f68bb;fill-opacity:1;fill-rule:nonzero;stroke:none"
         d="m 6433.03,518.988 c -8.36,0 -9.41,-0.039 -12.7,-0.187 -3.28,-0.153 -5.51,-0.672 -7.47,-1.43 -2.03,-0.781 -3.75,-1.84 -5.46,-3.551 -1.71,-1.711 -2.77,-3.429 -3.55,-5.461 -0.77,-1.961 -1.29,-4.199 -1.44,-7.48 -0.14,-3.277 -0.18,-4.328 -0.18,-12.699 0,-8.36 0.04,-9.41 0.18,-12.7 0.15,-3.281 0.67,-5.519 1.44,-7.48 0.78,-2.02 1.84,-3.738 3.55,-5.449 1.71,-1.719 3.43,-2.77 5.46,-3.563 1.96,-0.758 4.19,-1.277 7.47,-1.429 3.29,-0.149 4.34,-0.18 12.7,-0.18 8.37,0 9.42,0.031 12.71,0.18 3.28,0.152 5.52,0.671 7.47,1.429 2.03,0.793 3.75,1.844 5.46,3.563 1.71,1.711 2.77,3.429 3.56,5.449 0.76,1.961 1.28,4.199 1.43,7.48 0.15,3.29 0.18,4.34 0.18,12.7 0,8.371 -0.03,9.422 -0.18,12.699 -0.15,3.281 -0.67,5.519 -1.43,7.48 -0.79,2.032 -1.85,3.75 -3.56,5.461 -1.71,1.711 -3.43,2.77 -5.46,3.551 -1.95,0.758 -4.19,1.277 -7.47,1.43 -3.29,0.148 -4.34,0.187 -12.71,0.187 m 0,-5.547 c 8.23,0 9.2,-0.031 12.45,-0.179 3.01,-0.141 4.64,-0.641 5.72,-1.063 1.44,-0.558 2.47,-1.23 3.55,-2.308 1.07,-1.071 1.74,-2.102 2.3,-3.539 0.42,-1.082 0.92,-2.723 1.06,-5.723 0.15,-3.25 0.18,-4.219 0.18,-12.449 0,-8.219 -0.03,-9.2 -0.18,-12.442 -0.14,-3.008 -0.64,-4.636 -1.06,-5.726 -0.56,-1.43 -1.23,-2.461 -2.3,-3.543 -1.08,-1.078 -2.11,-1.739 -3.55,-2.297 -1.08,-0.422 -2.71,-0.934 -5.72,-1.063 -3.25,-0.148 -4.22,-0.179 -12.45,-0.179 -8.22,0 -9.19,0.031 -12.44,0.179 -3.01,0.129 -4.64,0.641 -5.72,1.063 -1.44,0.558 -2.47,1.219 -3.55,2.297 -1.07,1.082 -1.74,2.113 -2.3,3.543 -0.42,1.09 -0.92,2.718 -1.06,5.726 -0.15,3.242 -0.18,4.223 -0.18,12.442 0,8.23 0.03,9.199 0.18,12.449 0.14,3 0.64,4.641 1.06,5.723 0.56,1.437 1.23,2.468 2.3,3.539 1.08,1.078 2.11,1.75 3.55,2.308 1.08,0.422 2.71,0.922 5.72,1.063 3.25,0.148 4.22,0.179 12.44,0.179" /><path
         id="path36"
         style="fill:#3f68bb;fill-opacity:1;fill-rule:nonzero;stroke:none"
         d="m 6433.03,477.91 c -5.67,0 -10.26,4.602 -10.26,10.27 0,5.672 4.59,10.269 10.26,10.269 5.68,0 10.27,-4.597 10.27,-10.269 0,-5.668 -4.59,-10.27 -10.27,-10.27 m 0,26.09 c -8.73,0 -15.81,-7.078 -15.81,-15.82 0,-8.731 7.08,-15.821 15.81,-15.821 8.74,0 15.82,7.09 15.82,15.821 0,8.742 -7.08,15.82 -15.82,15.82" /><path
         id="path38"
         style="fill:#3f68bb;fill-opacity:1;fill-rule:nonzero;stroke:none"
         d="m 6453.18,504.629 c 0,-2.039 -1.66,-3.699 -3.7,-3.699 -2.04,0 -3.7,1.66 -3.7,3.699 0,2.043 1.66,3.691 3.7,3.691 2.04,0 3.7,-1.648 3.7,-3.691" /><path
         id="path40"
         style="fill:#fab927;fill-opacity:1;fill-rule:nonzero;stroke:none"
         d="m 4380.25,1870.78 c 8.85,-9.7 7.24,-22.29 5.91,-32.56 -0.59,-4.62 -1.15,-8.99 -0.89,-12.9 0.48,-7.47 3.5,-13.22 8.5,-16.19 4.85,-2.88 11.22,-2.87 17.49,0.02 2.74,1.27 5.99,0.08 7.27,-2.67 1.26,-2.74 0.07,-6 -2.68,-7.27 -9.59,-4.43 -19.68,-4.25 -27.68,0.51 -8.2,4.87 -13.11,13.71 -13.84,24.89 -0.32,4.97 0.34,10.08 0.97,15.01 1.52,11.84 2.01,19.44 -4.53,25.12 -8.9,7.78 -19.63,2.3 -25.23,-1.65 -2.47,-1.75 -5.89,-1.17 -7.63,1.31 -1.75,2.47 -1.16,5.89 1.31,7.63 13.8,9.74 28.29,10.1 38.76,0.96 l 2.27,-2.21" /><path
         id="path42"
         style="fill:#fab927;fill-opacity:1;fill-rule:nonzero;stroke:none"
         d="m 662.129,890.199 c -5.637,-8.769 -15.617,-10.097 -23.758,-11.179 -3.664,-0.489 -7.129,-0.95 -10.074,-1.942 -5.629,-1.898 -9.422,-5.379 -10.684,-9.816 -1.218,-4.313 0.086,-9.192 3.586,-13.41 1.531,-1.84 1.278,-4.582 -0.566,-6.114 -1.848,-1.539 -4.586,-1.277 -6.117,0.563 -5.36,6.449 -7.278,14.23 -5.258,21.328 2.058,7.281 7.836,12.851 16.265,15.691 3.747,1.262 7.793,1.789 11.704,2.309 9.39,1.25 15.312,2.43 18.339,8.601 4.149,8.411 -2.238,15.52 -6.414,19.008 -1.843,1.543 -2.093,4.282 -0.547,6.121 1.54,1.84 4.282,2.09 6.122,0.551 10.281,-8.59 13.511,-19.629 8.636,-29.519 l -1.234,-2.192" /><path
         id="path44"
         style="fill:#3051ab;fill-opacity:1;fill-rule:nonzero;stroke:none"
         d="m 4935.83,938.57 c -12.04,0 -21.81,9.758 -21.81,21.801 0,12.039 9.77,21.801 21.81,21.801 12.04,0 21.8,-9.762 21.8,-21.801 0,-12.043 -9.76,-21.801 -21.8,-21.801" /><path
         id="path46"
         style="fill:#3051ab;fill-opacity:1;fill-rule:nonzero;stroke:none"
         d="m 889.355,1171.87 c -12.039,0 -21.8,9.76 -21.8,21.8 0,12.04 9.761,21.8 21.8,21.8 12.04,0 21.801,-9.76 21.801,-21.8 0,-12.04 -9.761,-21.8 -21.801,-21.8" /><path
         id="path48"
         style="fill:#6f9fda;fill-opacity:1;fill-rule:nonzero;stroke:none"
         d="m 4217.35,2252.33 c -15.49,0 -28.09,-12.6 -28.09,-28.09 0,-15.49 12.6,-28.09 28.09,-28.09 15.49,0 28.09,12.6 28.09,28.09 0,15.49 -12.6,28.09 -28.09,28.09 z m 0,-66.87 c -21.38,0 -38.78,17.4 -38.78,38.78 0,21.38 17.4,38.78 38.78,38.78 21.38,0 38.78,-17.4 38.78,-38.78 0,-21.38 -17.4,-38.78 -38.78,-38.78" /><path
         id="path50"
         style="fill:#f25549;fill-opacity:1;fill-rule:nonzero;stroke:none"
         d="m 3870.91,1960.67 52.63,-52.62 52.62,52.62 -52.62,52.62 z m 52.63,-65.96 -65.97,65.96 65.97,65.96 65.95,-65.96 -65.95,-65.96" /><path
         id="path52"
         style="fill:#f25549;fill-opacity:1;fill-rule:nonzero;stroke:none"
         d="m 5430.28,789 31.59,-31.59 31.59,31.59 -31.59,31.59 z m 31.59,-39.602 -39.6,39.602 39.6,39.59 39.6,-39.59 -39.6,-39.602" /><path
         id="path54"
         style="fill:#f25549;fill-opacity:1;fill-rule:nonzero;stroke:none"
         d="m 755.648,2247.75 46.641,-46.65 46.641,46.65 -46.641,46.64 z m 46.641,-58.46 -58.461,58.46 58.461,58.46 58.461,-58.46 -58.461,-58.46" /><path
         id="path56"
         style="fill:#6f9fda;fill-opacity:1;fill-rule:nonzero;stroke:none"
         d="m 933.863,814.031 c -24.543,0 -44.508,-19.972 -44.508,-44.511 0,-24.54 19.965,-44.508 44.508,-44.508 24.543,0 44.508,19.968 44.508,44.508 0,24.539 -19.965,44.511 -44.508,44.511 z m 0,-102.691 c -32.078,0 -58.175,26.101 -58.175,58.18 0,32.07 26.097,58.171 58.175,58.171 32.075,0 58.172,-26.101 58.172,-58.171 0,-32.079 -26.097,-58.18 -58.172,-58.18" /><path
         id="path58"
         style="fill:#6f9fda;fill-opacity:1;fill-rule:nonzero;stroke:none"
         d="m 5189.41,1204.92 c -13.33,0 -24.17,-10.84 -24.17,-24.16 0,-13.32 10.84,-24.16 24.17,-24.16 13.32,0 24.16,10.84 24.16,24.16 0,13.32 -10.84,24.16 -24.16,24.16 z m 0,-55.74 c -17.42,0 -31.59,14.17 -31.59,31.58 0,17.41 14.17,31.58 31.59,31.58 17.41,0 31.58,-14.17 31.58,-31.58 0,-17.41 -14.17,-31.58 -31.58,-31.58" /><path
         id="path60"
         style="fill:#6f9fda;fill-opacity:1;fill-rule:nonzero;stroke:none"
         d="m 1059.66,2524.71 c -13.32,0 -24.16,-10.83 -24.16,-24.16 0,-13.32 10.84,-24.16 24.16,-24.16 13.32,0 24.16,10.84 24.16,24.16 0,13.33 -10.84,24.16 -24.16,24.16 z m 0,-55.74 c -17.41,0 -31.58,14.17 -31.58,31.58 0,17.42 14.17,31.59 31.58,31.59 17.41,0 31.58,-14.17 31.58,-31.59 0,-17.41 -14.17,-31.58 -31.58,-31.58" /><path
         id="path62"
         style="fill:#3051ab;fill-opacity:1;fill-rule:nonzero;stroke:none"
         d="m 3155.81,316.301 c -1251.73,0 -2266.455,30.09 -2266.455,67.199 0,37.109 1014.725,67.191 2266.455,67.191 1251.74,0 2266.46,-30.082 2266.46,-67.191 0,-37.109 -1014.72,-67.199 -2266.46,-67.199" /><path
         id="path64"
         style="fill:#389b6e;fill-opacity:1;fill-rule:nonzero;stroke:none"
         d="M 3297.54,2541.88 V 559.141 h -48.75 V 2541.88 h 48.75" /><path
         id="path66"
         style="fill:#389b6e;fill-opacity:1;fill-rule:nonzero;stroke:none"
         d="M 3605.35,2541.88 V 559.141 H 3556.6 V 2541.88 h 48.75" /><path
         id="path68"
         style="fill:#389b6e;fill-opacity:1;fill-rule:nonzero;stroke:none"
         d="m 3605.35,567.879 c 0,-98.457 -79.82,-178.277 -178.28,-178.277 -98.46,0 -178.28,79.82 -178.28,178.277" /><path
         id="path70"
         style="fill:#1c233a;fill-opacity:1;fill-rule:nonzero;stroke:none"
         d="m 3556.6,567.879 c 0,-71.527 -57.99,-129.52 -129.53,-129.52 -71.54,0 -129.53,57.993 -129.53,129.52" /><path
         id="path72"
         style="fill:#ffffff;fill-opacity:1;fill-rule:nonzero;stroke:none"
         d="M 3556.6,567.879 V 2466.88 H 3297.54 V 567.879 h 259.06" /><path
         id="path74"
         style="fill:#878a8a;fill-opacity:1;fill-rule:nonzero;stroke:none"
         d="m 3367.53,1501.11 h 5.5898 v 965.766 h -5.5898 z" /><path
         id="path76"
         style="fill:#878a8a;fill-opacity:1;fill-rule:nonzero;stroke:none"
         d="m 3429.92,567.859 c 0.08,12.813 0.11,66.2 0.11,131.719 0,131.031 -0.11,310.532 -0.11,310.532 h -5.59 c 0,-0.03 0.01,-11.219 0.02,-30.09 0.03,-56.629 0.09,-182.168 0.09,-280.442 0,-65.519 -0.03,-118.918 -0.11,-131.68 l 5.59,-0.039" /><path
         id="path78"
         style="fill:#878a8a;fill-opacity:1;fill-rule:nonzero;stroke:none"
         d="m 3481.34,567.859 c 0.08,12.801 0.11,43.539 0.11,78.852 0,70.609 -0.11,159.488 -0.11,159.488 h -5.59 c 0,-0.058 0.03,-22.219 0.05,-53.269 0.03,-31.039 0.06,-70.918 0.06,-106.219 0,-35.301 -0.03,-66.051 -0.11,-78.813 l 5.59,-0.039" /><path
         id="path80"
         style="fill:#878a8a;fill-opacity:1;fill-rule:nonzero;stroke:none"
         d="m 3499.87,2232.25 c 0.08,12.79 0.11,43.18 0.11,78.02 0,69.69 -0.11,157.17 -0.11,157.17 l -5.59,-0.01 c 0,-0.05 0.03,-21.87 0.05,-52.45 0.03,-30.58 0.06,-69.87 0.06,-104.71 0,-34.83 -0.03,-65.23 -0.11,-77.99 l 5.59,-0.03" /><path
         id="path82"
         style="fill:#878a8a;fill-opacity:1;fill-rule:nonzero;stroke:none"
         d="m 3436.44,2353.16 c 0.08,12.79 0.11,29.75 0.11,46.68 0,33.86 -0.11,67.6 -0.11,67.6 l -5.59,-0.01 c 0,-0.03 0.03,-8.44 0.05,-21.11 0.03,-12.66 0.06,-29.56 0.06,-46.48 0,-16.93 -0.03,-33.88 -0.11,-46.65 l 5.59,-0.03" /><path
         id="path84"
         style="fill:#6f9fda;fill-opacity:1;fill-rule:nonzero;stroke:none"
         d="m 2584.59,381.891 217.02,1970.819 48.46,-5.33 -217.02,-1970.829 -48.46,5.34" /><path
         id="path86"
         style="fill:#6f9fda;fill-opacity:1;fill-rule:nonzero;stroke:none"
         d="m 2278.62,415.582 217.03,1970.818 48.46,-5.33 -217.02,-1970.832 -48.47,5.344" /><path
         id="path88"
         style="fill:#6f9fda;fill-opacity:1;fill-rule:nonzero;stroke:none"
         d="m 2494.69,2377.71 c 10.78,97.88 98.86,168.48 196.73,157.7 97.87,-10.78 168.47,-98.86 157.7,-196.73" /><path
         id="path90"
         style="fill:#1c233a;fill-opacity:1;fill-rule:nonzero;stroke:none"
         d="m 2543.16,2372.38 c 7.83,71.1 71.82,122.4 142.92,114.57 71.11,-7.83 122.4,-71.82 114.57,-142.93" /><path
         id="path92"
         style="fill:#ffffff;fill-opacity:1;fill-rule:nonzero;stroke:none"
         d="M 2543.16,2372.38 2335.3,484.789 l 257.5,-28.348 207.85,1887.579 -257.49,28.36" /><path
         id="path94"
         style="fill:#878a8a;fill-opacity:1;fill-rule:nonzero;stroke:none"
         d="m 2523.23,464.102 105.71,959.958 -5.56,0.61 -105.71,-959.959" /><path
         id="path96"
         style="fill:#878a8a;fill-opacity:1;fill-rule:nonzero;stroke:none"
         d="m 2669.07,2358.53 c -4.45,-38.12 -48.4,-439.59 -48.4,-439.59 l 5.55,-0.61 c 0,0 0.69,6.27 1.9,17.32 8.47,77.36 42.62,388.94 46.51,422.23 l -5.56,0.65" /><path
         id="path98"
         style="fill:#878a8a;fill-opacity:1;fill-rule:nonzero;stroke:none"
         d="m 2617.96,2364.16 c -4.45,-38.12 -26.08,-236.9 -26.08,-236.91 l 5.55,-0.61 c 0.01,0.04 1.36,12.43 3.45,31.66 6.3,57.7 19.31,176.68 22.64,205.21 l -5.56,0.65" /><path
         id="path100"
         style="fill:#878a8a;fill-opacity:1;fill-rule:nonzero;stroke:none"
         d="m 2417.37,711.809 c -4.45,-38.118 -25.75,-233.778 -25.75,-233.778 l 5.56,-0.609 c 0,0.027 1.33,12.226 3.4,31.168 6.19,56.808 19.01,174.039 22.34,202.57 l -5.55,0.649" /><path
         id="path102"
         style="fill:#878a8a;fill-opacity:1;fill-rule:nonzero;stroke:none"
         d="m 2467.18,584.68 c -4.45,-38.11 -12.51,-113.598 -12.51,-113.598 l 5.56,-0.602 c 0,0.051 2.02,18.872 4.59,42.5 2.57,23.629 5.69,52.032 7.91,71.051 l -5.55,0.649" /><path
         id="path104"
         style="fill:#878a8a;fill-opacity:1;fill-rule:nonzero;stroke:none"
         d="m 2476.33,862.371 81.92,743.919 -5.56,0.61 -81.92,-743.92" /><path
         id="path106"
         style="fill:#d3493f;fill-opacity:1;fill-rule:nonzero;stroke:none"
         d="M 3226.16,390.102 H 2869.6 V 2542.38 h 356.56 V 390.102" /><path
         id="path108"
         style="fill:#d3493f;fill-opacity:1;fill-rule:nonzero;stroke:none"
         d="m 3247.76,390.102 h -21.6 V 2542.38 h 21.6 V 390.102" /><path
         id="path110"
         style="fill:#d3493f;fill-opacity:1;fill-rule:nonzero;stroke:none"
         d="M 2869.6,390.102 H 2848 V 2542.38 h 21.6 V 390.102" /><path
         id="path112"
         style="fill:#f25549;fill-opacity:1;fill-rule:nonzero;stroke:none"
         d="M 3226.16,2329.89 H 2869.6 v 212.49 h 356.56 v -212.49" /><path
         id="path114"
         style="fill:#f25549;fill-opacity:1;fill-rule:nonzero;stroke:none"
         d="M 3226.16,872.73 H 2869.6 v 1187.02 h 356.56 V 872.73" /><path
         id="path116"
         style="fill:#d3493f;fill-opacity:1;fill-rule:nonzero;stroke:none"
         d="m 3137.14,1466.24 c 0,-106.72 -39.96,-193.22 -89.26,-193.22 -49.3,0 -89.26,86.5 -89.26,193.22 0,106.71 39.96,193.22 89.26,193.22 49.3,0 89.26,-86.51 89.26,-193.22" /><path
         id="path118"
         style="fill:#f25549;fill-opacity:1;fill-rule:nonzero;stroke:none"
         d="M 3226.16,2164.55 H 2869.6 v 62.18 h 356.56 v -62.18" /><path
         id="path120"
         style="fill:#f25549;fill-opacity:1;fill-rule:nonzero;stroke:none"
         d="m 2869.6,602.59 h 356.56 V 390.102 H 2869.6 V 602.59" /><path
         id="path122"
         style="fill:#f25549;fill-opacity:1;fill-rule:nonzero;stroke:none"
         d="m 2869.6,767.922 h 356.56 V 705.75 H 2869.6 v 62.172" /><path
         id="path124"
         style="fill:#fab927;fill-opacity:1;fill-rule:nonzero;stroke:none"
         d="M 2255.42,390.102 H 1898.85 V 2542.38 h 356.57 V 390.102" /><path
         id="path126"
         style="fill:#fab927;fill-opacity:1;fill-rule:nonzero;stroke:none"
         d="m 2277.01,390.102 h -21.59 V 2542.38 h 21.59 V 390.102" /><path
         id="path128"
         style="fill:#fab927;fill-opacity:1;fill-rule:nonzero;stroke:none"
         d="m 1898.85,390.102 h -21.59 V 2542.38 h 21.59 V 390.102" /><path
         id="path130"
         style="fill:#f79826;fill-opacity:1;fill-rule:nonzero;stroke:none"
         d="m 2255.42,2329.89 h -356.57 v 212.49 h 356.57 v -212.49" /><path
         id="path132"
         style="fill:#f79826;fill-opacity:1;fill-rule:nonzero;stroke:none"
         d="m 2255.42,872.73 h -356.57 v 1187.02 h 356.57 V 872.73" /><path
         id="path134"
         style="fill:#fab927;fill-opacity:1;fill-rule:nonzero;stroke:none"
         d="m 2166.39,1466.24 c 0,-106.72 -39.96,-193.22 -89.26,-193.22 -49.29,0 -89.26,86.5 -89.26,193.22 0,106.71 39.97,193.22 89.26,193.22 49.3,0 89.26,-86.51 89.26,-193.22" /><path
         id="path136"
         style="fill:#f79826;fill-opacity:1;fill-rule:nonzero;stroke:none"
         d="m 2255.42,2164.55 h -356.57 v 62.18 h 356.57 v -62.18" /><path
         id="path138"
         style="fill:#f79826;fill-opacity:1;fill-rule:nonzero;stroke:none"
         d="m 1898.85,602.59 h 356.57 V 390.102 H 1898.85 V 602.59" /><path
         id="path140"
         style="fill:#f79826;fill-opacity:1;fill-rule:nonzero;stroke:none"
         d="m 1898.85,767.922 h 356.57 V 705.75 h -356.57 v 62.172" /><path
         id="path142"
         style="fill:#1c233a;fill-opacity:1;fill-rule:nonzero;stroke:none"
         d="m 4314.13,1191.25 -135.46,-141.41 c -7.14,26.24 -14.28,52.49 -21.42,78.73 -10.9,40.08 -22.82,79.43 -40.82,117 -16.17,33.75 -28.51,86.47 -76.51,77.49 -31.24,-5.84 -62.24,-13.51 -93.29,-20.26 -11.73,-2.54 -23.46,-5.09 -35.19,-7.64 l -159.16,57.26 -22.72,-424.639 136.11,-155.621 142.6,122.192 c 9.86,-22.692 23.27,-43.454 41.18,-61.063 13.29,-13.93 32.03,-22.629 52.82,-22.629 3.04,0 6.04,0.199 8.98,0.57 0.07,0 167.88,13.981 231.3,289.24 l 18.71,27.01 -47.13,63.77" /><path
         id="path144"
         style="fill:#fde9b2;fill-opacity:1;fill-rule:nonzero;stroke:none"
         d="m 4301.93,1330.04 c 0,0 -29.76,75.91 -202.47,60.28 l 13.92,-16.78 147.42,-50.21 41.13,6.71" /><path
         id="path146"
         style="fill:#fde9b2;fill-opacity:1;fill-rule:nonzero;stroke:none"
         d="m 4301.94,1327.3 c 0,0 14.9,55.43 98.83,34.01 0,0 -50.72,-32.38 -53.12,-32.54 -2.4,-0.17 -45.71,-1.47 -45.71,-1.47" /><path
         id="path148"
         style="fill:#c44036;fill-opacity:1;fill-rule:nonzero;stroke:none"
         d="m 4321.86,1331.11 -43.31,3.92 -78.5,-252.29 43.31,-3.92 78.5,252.29" /><path
         id="path150"
         style="fill:#a43a32;fill-opacity:1;fill-rule:nonzero;stroke:none"
         d="m 4321.86,1331.11 87.86,33.63 -78.5,-252.29 -87.86,-33.63 78.5,252.29" /><path
         id="path152"
         style="fill:#d3493f;fill-opacity:1;fill-rule:nonzero;stroke:none"
         d="m 4087.78,1393.92 190.77,-58.89 -78.5,-252.29 -190.77,58.9 78.5,252.28" /><path
         id="path154"
         style="fill:#f5806b;fill-opacity:1;fill-rule:nonzero;stroke:none"
         d="m 4362.85,1127.41 c 0,0 31.4,28.15 37.12,88.01 0.7,7.32 -6.82,15.13 -11.08,21.12 -11.42,16.04 -29.27,47.26 -35.2,47.26 -7.95,0 -12.83,-11.1 13.44,-60.48 l -26.27,-70.86 21.99,-25.05" /><path
         id="path156"
         style="fill:#f5806b;fill-opacity:1;fill-rule:nonzero;stroke:none"
         d="m 4354.75,1167.89 -10.5,-28.27 c 0,0 -48.92,52.79 -46.96,62.26 0.98,4.74 4.47,5.76 7.72,5.59 3.4,-0.18 6.55,-1.86 8.84,-4.37 l 40.9,-35.21" /><path
         id="path158"
         style="fill:#f5806b;fill-opacity:1;fill-rule:nonzero;stroke:none"
         d="m 4392.43,1200.22 -16.71,-16.69 c 0,0 -66.74,63.34 -65.66,72.95 0.54,4.81 3.92,6.14 7.16,6.28 3.41,0.13 9.54,-3.79 12.06,-6.08 l 63.15,-56.46" /><path
         id="path160"
         style="fill:#f5806b;fill-opacity:1;fill-rule:nonzero;stroke:none"
         d="m 4377.97,1186.46 -25.42,-21.31 c 0,0 -58.03,67.96 -56.96,77.58 0.54,4.8 3.92,6.14 7.17,6.27 3.4,0.14 9.54,-3.79 12.06,-6.08 l 63.15,-56.46" /><path
         id="path162"
         style="fill:#040606;fill-opacity:1;fill-rule:nonzero;stroke:none"
         d="m 4328.68,1228.11 c 0.01,-0.02 4.55,-4.67 11.06,-11.69 6.51,-7.01 14.98,-16.36 22.79,-25.7 l 3.01,2.52 c -15.74,18.82 -34.03,37.59 -34.05,37.61 l -2.81,-2.74" /><path
         id="path164"
         style="fill:#040606;fill-opacity:1;fill-rule:nonzero;stroke:none"
         d="m 4333.69,1184.75 c 0.01,0 1.25,-1.29 3.62,-3.97 2.36,-2.68 5.84,-6.72 10.24,-12.18 l 3.05,2.47 c -8.87,11 -14.05,16.37 -14.08,16.41 l -2.83,-2.73" /><path
         id="path166"
         style="fill:#f5806b;fill-opacity:1;fill-rule:nonzero;stroke:none"
         d="m 4100.06,1189.13 14.37,-25.16 c 0,0 52.47,41.85 51.88,52.2 -0.3,5.18 -3.84,6.8 -7.31,7.13 -3.63,0.35 -7.23,-0.94 -10.06,-3.25 l -48.88,-30.92" /><path
         id="path168"
         style="fill:#f5806b;fill-opacity:1;fill-rule:nonzero;stroke:none"
         d="m 4049.3,1243.24 18.21,-20.46 c 0,0 58.77,53.23 58.18,64.44 -0.29,5.6 -4.11,7.38 -7.86,7.76 -3.93,0.39 -7.84,-0.98 -10.91,-3.47 l -57.62,-48.27" /><path
         id="path170"
         style="fill:#f5806b;fill-opacity:1;fill-rule:nonzero;stroke:none"
         d="m 4061.33,1226.16 16.83,-18.91 c 0,0 75.42,63.53 74.88,73.89 -0.28,5.18 -3.81,6.82 -7.28,7.17 -3.63,0.36 -10.44,-3.45 -13.28,-5.74 l -71.15,-56.41" /><path
         id="path172"
         style="fill:#f5806b;fill-opacity:1;fill-rule:nonzero;stroke:none"
         d="m 4075.94,1210.52 25.84,-24.41 c 0,0 66.4,69.04 65.86,79.4 -0.27,5.18 -3.81,6.82 -7.27,7.16 -3.63,0.37 -10.45,-3.44 -13.29,-5.74 l -71.14,-56.41" /><path
         id="path174"
         style="fill:#f5806b;fill-opacity:1;fill-rule:nonzero;stroke:none"
         d="m 4118.85,1167.17 c 0,0 -31.45,-57.77 -88.06,-86.07 l -58.88,72.39 77.56,90.65 69.38,-76.97" /><path
         id="path176"
         style="fill:#040606;fill-opacity:1;fill-rule:nonzero;stroke:none"
         d="m 4130.99,1256.66 -52.66,-51.57 2.75,-2.8 52.66,51.57" /><path
         id="path178"
         style="fill:#040606;fill-opacity:1;fill-rule:nonzero;stroke:none"
         d="m 4111.85,1199.61 -13.68,-12.02 2.59,-2.95 13.68,12.02" /><path
         id="path180"
         style="fill:#040606;fill-opacity:1;fill-rule:nonzero;stroke:none"
         d="m 4111.82,1269.54 -50.13,-46.07 2.66,-2.89 50.13,46.06" /><path
         id="path182"
         style="fill:#161e28;fill-opacity:1;fill-rule:nonzero;stroke:none"
         d="m 3876.19,1603.8 c 0,0 -60.3,-128.47 15.75,-187.97 l 20.93,88.35 7.91,67.82 -44.59,31.8" /><path
         id="path184"
         style="fill:#f5806b;fill-opacity:1;fill-rule:nonzero;stroke:none"
         d="m 3890.12,1523.03 c 13.07,0.2 19.88,-10.25 23.1,-17.8 l 8.02,78.14 154.85,-16.93 c 0,0 -2.98,-63.24 -11.72,-155 -0.49,-5.1 -1.25,-10.23 -2.67,-15.15 -18.69,-64.69 -98.27,-24.04 -102.54,-21.56 l -4.32,-68.3 c -0.61,-36.48 -21.61,-47.14 -33.26,-47.04 -57.18,-2.55 -68.93,45.87 -68.93,56.46 l 43.13,142.82 c -7.64,0.71 -10.38,2.89 -13.38,8.16 -4.96,8.7 -6.34,27.94 -5.88,37.94 0.43,9.03 3.4,18.1 13.6,18.26" /><path
         id="path186"
         style="fill:#161e28;fill-opacity:1;fill-rule:nonzero;stroke:none"
         d="m 3913.22,1505.23 c 0,0 5.74,-25.31 15.18,-10.32 9.44,14.98 29.48,83.7 29.48,83.7 l -41.75,8.56 -2.91,-81.94" /><path
         id="path188"
         style="fill:#040606;fill-opacity:1;fill-rule:nonzero;stroke:none"
         d="m 3888.7,1511.57 0.46,-0.22 c 2.31,-1.24 12.11,-7 12.13,-22.95 0,-4.88 -0.93,-10.75 -3.34,-17.78 l 3.53,-1.2 c 2.52,7.35 3.53,13.63 3.53,18.98 0.01,20.26 -14.61,26.56 -14.89,26.61 l -1.41,-3.44" /><path
         id="path190"
         style="fill:#040606;fill-opacity:1;fill-rule:nonzero;stroke:none"
         d="m 3900.48,1502.64 c -0.08,0.01 -0.89,0.15 -2.11,0.15 -1.89,0 -4.83,-0.32 -7.47,-2.25 -2.65,-1.93 -4.64,-5.52 -4.61,-11 0,-2.57 0.41,-5.58 1.32,-9.15 l 3.61,0.93 c -0.86,3.33 -1.2,6.04 -1.2,8.22 0.03,4.68 1.48,6.78 3.1,8.01 1.63,1.23 3.79,1.53 5.25,1.52 l 1.11,-0.05 0.34,-0.05 0.66,3.67" /><path
         id="path192"
         style="fill:#131312;fill-opacity:1;fill-rule:nonzero;stroke:none"
         d="m 3997.03,1484.51 c -0.69,-4.59 1.04,-8.65 3.86,-9.08 2.83,-0.42 5.68,2.95 6.37,7.54 0.69,4.59 -1.03,8.65 -3.86,9.08 -2.82,0.43 -5.68,-2.95 -6.37,-7.54" /><path
         id="path194"
         style="fill:#131312;fill-opacity:1;fill-rule:nonzero;stroke:none"
         d="m 4052.73,1476.1 c -0.69,-4.59 1.03,-8.65 3.86,-9.08 2.82,-0.42 5.67,2.95 6.37,7.54 0.69,4.59 -1.04,8.65 -3.86,9.08 -2.83,0.42 -5.68,-2.95 -6.37,-7.54" /><path
         id="path196"
         style="fill:#040606;fill-opacity:1;fill-rule:nonzero;stroke:none"
         d="m 4025.46,1446.77 c 0.1,-0.03 2.37,-0.75 5.13,-0.76 1.76,0.01 3.8,0.29 5.57,1.53 1.79,1.24 2.98,3.55 2.94,6.49 -0.01,3.32 -1.25,7.6 -4.25,13.57 l -3.33,-1.67 c 2.88,-5.68 3.87,-9.55 3.86,-11.9 -0.04,-2.11 -0.63,-2.88 -1.38,-3.46 -0.78,-0.57 -2.07,-0.84 -3.41,-0.83 -1.04,-0.01 -2.07,0.14 -2.83,0.3 l -1.19,0.28 -1.11,-3.55" /><path
         id="path198"
         style="fill:#040606;fill-opacity:1;fill-rule:nonzero;stroke:none"
         d="m 3989.26,1506.42 c 7.49,6.32 18.3,6.35 25.88,0.18 l 0.01,-0.56 c -8.25,0.17 -18.7,-1.47 -25.89,0.38" /><path
         id="path200"
         style="fill:#040606;fill-opacity:1;fill-rule:nonzero;stroke:none"
         d="m 4047.89,1501.65 c 9.07,3.71 19.36,0.4 24.67,-7.81 -7.42,0.36 -16.91,5 -24.84,7.28 l 0.17,0.53" /><path
         id="path202"
         style="fill:#1c233a;fill-opacity:1;fill-rule:nonzero;stroke:none"
         d="m 3959.16,1374.73 c 0,0 -17.81,9.1 -35.63,24.51 0,0 17.34,-34.92 34.31,-45.36 l 1.32,20.85" /><path
         id="path204"
         style="fill:#040606;fill-opacity:1;fill-rule:nonzero;stroke:none"
         d="m 4005.7,1424.52 -0.3,-0.09 c -0.67,-0.18 -2.4,-0.57 -4.6,-0.57 -2.75,0 -6.18,0.59 -9.41,2.84 -3.22,2.25 -6.37,6.2 -8.43,13.36 l -3.58,-1.03 c 2.22,-7.77 5.87,-12.6 9.89,-15.39 4.01,-2.79 8.26,-3.5 11.53,-3.5 3.51,0 5.95,0.81 6.07,0.85 l -1.17,3.53" /><path
         id="path206"
         style="fill:#161e28;fill-opacity:1;fill-rule:nonzero;stroke:none"
         d="m 4075.02,1554.87 c -1.92,-1.46 -2.97,-0.98 -7.56,-0.29 -19.43,2.94 -39.06,4.22 -58.57,6.47 -15.19,1.76 -30.38,3.51 -45.58,5.26 -5.87,0.68 -14.78,3.52 -20.66,2.39 l -76.89,-14.72 c -0.68,0.05 2.5,38.38 4.25,42.17 8.56,18.54 35.2,35.61 51.94,45.95 6.64,4.1 13.74,7.9 21.49,8.84 7.75,0.93 16.35,-1.56 20.85,-7.94 1.49,-2.11 2.53,-4.6 4.54,-6.22 4.29,-3.43 10.64,-1.32 15.47,1.29 9.19,4.96 17.7,11.34 27.56,14.8 9.85,3.46 21.87,3.39 29.6,-3.62 6.12,-5.55 8.1,-16.83 14.97,-21.17 6.76,-4.27 14.21,3.46 20.79,5.66 10.57,3.55 30.78,8.31 38.05,-3.75 6.34,-10.52 -2.73,-28.58 -8.09,-37.73 -7.94,-13.53 -19.1,-24.89 -30.3,-35.73 l -1.86,-1.66" /><path
         id="path208"
         style="fill:#2e3848;fill-opacity:1;fill-rule:nonzero;stroke:none"
         d="m 3875.96,1577.41 c 0.13,-0.05 27.56,-10.5 64.17,-10.5 1.88,0 3.77,0.02 5.69,0.08 l -0.12,3.92 c -1.88,-0.05 -3.73,-0.08 -5.57,-0.08 -17.93,0 -33.66,2.57 -44.89,5.14 -5.61,1.28 -10.1,2.57 -13.18,3.52 -3.08,0.96 -4.7,1.59 -4.71,1.59 l -1.39,-3.67" /><path
         id="path210"
         style="fill:#2e3848;fill-opacity:1;fill-rule:nonzero;stroke:none"
         d="m 3961.02,1586.55 c 0.04,0.11 4.21,12.59 5.31,30.46 l -3.92,0.24 c -0.53,-8.68 -1.82,-16.08 -2.97,-21.28 -0.57,-2.6 -1.11,-4.66 -1.51,-6.06 -0.39,-1.4 -0.63,-2.11 -0.63,-2.11 l 3.72,-1.25" /><path
         id="path212"
         style="fill:#2e3848;fill-opacity:1;fill-rule:nonzero;stroke:none"
         d="m 4042.42,1556.29 c 0.05,0.04 6.29,5.36 12.57,13.05 6.26,7.71 12.72,17.73 12.78,27.76 l -0.05,1.39 -3.91,-0.25 0.03,-1.14 c 0.06,-8.25 -5.81,-17.9 -11.89,-25.28 -3.02,-3.69 -6.05,-6.85 -8.32,-9.06 -2.28,-2.22 -3.76,-3.48 -3.76,-3.49 l 2.55,-2.99" /><path
         id="path214"
         style="fill:#2e3848;fill-opacity:1;fill-rule:nonzero;stroke:none"
         d="m 3999.52,1561.07 c 0.1,0.16 13.36,16.29 13.97,37.24 l -3.92,0.11 c -0.26,-9.66 -3.53,-18.42 -6.76,-24.74 -1.61,-3.16 -3.21,-5.72 -4.4,-7.47 l -1.42,-2 -0.51,-0.66 3.04,-2.48" /><path
         id="path216"
         style="fill:#ffffff;fill-opacity:1;fill-rule:nonzero;stroke:none"
         d="m 4023.43,1488.67 1.93,-0.29 c 0.21,1.39 0.31,2.79 0.31,4.16 0,13.46 -9.83,25.25 -23.54,27.33 -1.4,0.21 -2.79,0.31 -4.16,0.31 -13.46,0 -25.25,-9.83 -27.33,-23.54 -0.21,-1.4 -0.31,-2.79 -0.31,-4.16 0,-13.47 9.83,-25.26 23.54,-27.33 1.4,-0.21 2.79,-0.31 4.16,-0.31 13.47,0 25.25,9.83 27.33,23.54 l -1.93,0.29 -1.93,0.29 c -1.77,-11.78 -11.92,-20.22 -23.47,-20.22 -1.18,0 -2.37,0.08 -3.58,0.27 -11.77,1.77 -20.22,11.92 -20.22,23.47 0,1.18 0.09,2.37 0.27,3.58 1.77,11.77 11.92,20.22 23.47,20.22 1.18,0 2.38,-0.09 3.58,-0.27 11.78,-1.78 20.22,-11.92 20.22,-23.47 0,-1.18 -0.09,-2.38 -0.27,-3.58 l 1.93,-0.29" /><path
         id="path218"
         style="fill:#ffffff;fill-opacity:1;fill-rule:nonzero;stroke:none"
         d="m 4091.19,1478.43 1.93,-0.29 c 0.21,1.4 0.32,2.79 0.32,4.17 0,13.46 -9.84,25.25 -23.54,27.32 -1.4,0.21 -2.79,0.32 -4.17,0.32 -13.46,0 -25.25,-9.84 -27.32,-23.54 -0.22,-1.4 -0.32,-2.79 -0.32,-4.17 0,-13.46 9.83,-25.25 23.54,-27.32 1.4,-0.22 2.79,-0.32 4.17,-0.32 13.46,0 25.25,9.83 27.32,23.54 l -1.93,0.29 -1.92,0.29 c -1.78,-11.77 -11.93,-20.22 -23.47,-20.22 -1.18,0 -2.38,0.09 -3.59,0.27 -11.77,1.78 -20.22,11.92 -20.22,23.47 0,1.18 0.09,2.38 0.27,3.58 1.78,11.78 11.92,20.22 23.47,20.22 1.18,0 2.38,-0.08 3.58,-0.27 11.78,-1.77 20.23,-11.91 20.22,-23.46 0,-1.19 -0.08,-2.38 -0.26,-3.59 l 1.92,-0.29" /><path
         id="path220"
         style="fill:#ffffff;fill-opacity:1;fill-rule:nonzero;stroke:none"
         d="m 4042.97,1489.63 0.12,1.6 c 0,5.17 -3.77,9.7 -9.04,10.5 l -1.6,0.12 c -5.18,0 -9.7,-3.78 -10.5,-9.05 l 3.85,-0.58 c 0.5,3.34 3.38,5.73 6.65,5.73 l 1.02,-0.08 c 3.33,-0.5 5.72,-3.38 5.72,-6.64 l -0.07,-1.02 3.85,-0.58" /><path
         id="path222"
         style="fill:#ffffff;fill-opacity:1;fill-rule:nonzero;stroke:none"
         d="m 3976.84,1508.6 -50.31,7.6 -2.67,0.2 c -3.79,0 -7.51,-1.21 -10.6,-3.48 l -2.98,-2.2 2.32,-3.14 2.97,2.2 c 2.42,1.78 5.32,2.72 8.29,2.72 l 2.08,-0.15 50.32,-7.6 0.58,3.85" /><path
         id="path224"
         style="fill:#f5806b;fill-opacity:1;fill-rule:nonzero;stroke:none"
         d="m 5097.4,428.738 -109.36,3.094 -47.54,137.328 160.93,-9.609 9.68,-91.492 -13.71,-39.321" /><path
         id="path226"
         style="fill:#1c233a;fill-opacity:1;fill-rule:nonzero;stroke:none"
         d="m 5094.57,429.309 c 0,0 41.37,46.461 -11.82,131.351 0,0 6.54,29.711 24.68,74.641 32.97,81.679 13.57,115.801 64.25,122.738 l 48.48,-354.187 c 0,0 -24.27,-23.481 -125.59,25.457" /><path
         id="path228"
         style="fill:#1c233a;fill-opacity:1;fill-rule:nonzero;stroke:none"
         d="m 5198.85,761.762 48.49,-354.192 -27.18,-3.718 -48.48,354.187 27.17,3.723" /><path
         id="path230"
         style="fill:#627493;fill-opacity:1;fill-rule:nonzero;stroke:none"
         d="m 5222.59,404.18 -48.48,354.191 -4.86,-0.66 48.48,-354.199" /><path
         id="path232"
         style="fill:#627493;fill-opacity:1;fill-rule:nonzero;stroke:none"
         d="m 5156.4,405.512 c 0,0.008 0.07,0.609 0.3,1.797 0.8,4.16 3.56,14.812 11.26,24.23 7.74,9.41 20.21,17.77 41.45,17.813 1.33,0 2.69,-0.043 4.08,-0.102 l 0.24,4.898 c -1.47,0.071 -2.91,0.102 -4.32,0.102 -25.82,0.059 -40.66,-12.059 -48.55,-24.102 -7.93,-12.019 -9.3,-23.847 -9.33,-24.066 l 4.87,-0.57" /><path
         id="path234"
         style="fill:#627493;fill-opacity:1;fill-rule:nonzero;stroke:none"
         d="m 5120.07,681.102 c 0.02,-0.262 0.15,-13.082 8.97,-26.461 8.79,-13.411 26.48,-27.032 60.25,-28.559 l 0.23,4.898 c -32.58,1.571 -48.33,14.239 -56.39,26.36 -4.01,6.082 -6.06,12.09 -7.09,16.558 -0.52,2.231 -0.79,4.082 -0.92,5.352 l -0.12,1.461 -0.02,0.437 -4.91,-0.046" /><path
         id="path236"
         style="fill:#627493;fill-opacity:1;fill-rule:nonzero;stroke:none"
         d="m 5086.93,580.879 -2.45,-0.117 c 0,-0.012 1.49,-30.223 1.69,-33.832 0.22,-4.121 2.35,-7.571 5.28,-9.848 2.94,-2.293 6.68,-3.543 10.5,-3.543 2.09,0 4.21,0.383 6.23,1.191 l 0.04,0.02 1.34,0.621 0.06,0.02 0.04,0.031 c 5.79,2.976 8.74,8.808 8.72,14.59 0,4.91 -2.08,9.918 -6.3,13.379 l -27.88,22.898 0.28,-5.527 2.45,0.117 -1.56,-1.899 23.6,-19.378 c 3.01,-2.481 4.5,-6.043 4.5,-9.59 -0.02,-4.192 -2.04,-8.153 -6.06,-10.231 l 1.12,-2.179 -1.02,2.23 -1.28,-0.59 1.02,-2.23 -0.92,2.269 c -1.39,-0.562 -2.88,-0.84 -4.38,-0.84 -2.74,0 -5.48,0.93 -7.47,2.5 -2,1.59 -3.25,3.668 -3.41,6.258 -0.19,3.563 -1.69,33.77 -1.69,33.801 l -2.45,-0.121 -1.56,-1.899 1.56,1.899" /><path
         id="path238"
         style="fill:#627493;fill-opacity:1;fill-rule:nonzero;stroke:none"
         d="m 5086.93,580.879 1.78,1.691 c 0,0 -2.84,2.989 -5.92,6.168 -1.54,1.602 -3.14,3.242 -4.48,4.582 -1.37,1.371 -2.37,2.36 -3.06,2.918 -1.18,0.953 -1.86,2.434 -1.87,4.094 0.03,2.438 1.41,5.18 5.32,6.809 l -0.93,2.269 0.86,-2.289 1.32,0.488 -0.86,2.301 0.8,-2.32 c 1.97,0.68 3.83,0.969 5.45,0.969 2.28,0.011 4.09,-0.59 5.19,-1.399 1.1,-0.84 1.57,-1.711 1.59,-2.941 l -0.3,-1.668 -7.21,-20.871 2.32,-0.801 1.78,1.691 -1.78,-1.691 2.32,-0.797 7.2,20.867 c 0.38,1.09 0.58,2.192 0.58,3.27 0.02,2.82 -1.43,5.351 -3.6,6.902 -2.17,1.57 -4.98,2.348 -8.09,2.348 -2.22,0 -4.6,-0.399 -7.04,-1.239 l -0.04,-0.011 -1.35,-0.508 -0.03,-0.012 -0.03,-0.008 c -5.54,-2.222 -8.4,-6.902 -8.37,-11.359 -0.01,-3.012 1.27,-5.961 3.7,-7.922 0.25,-0.191 1.36,-1.25 2.65,-2.551 3.94,-3.961 10.31,-10.66 10.32,-10.668 l 2.78,-2.929 1.32,3.82 -2.32,0.797" /><path
         id="path240"
         style="fill:#627493;fill-opacity:1;fill-rule:nonzero;stroke:none"
         d="m 5122.89,581.52 -0.16,0.082 c -0.95,0.449 -5.84,3 -10.4,8.289 -4.56,5.308 -8.86,13.269 -8.87,25.031 0,1.769 0.1,3.629 0.31,5.578 l -4.87,0.539 c -0.24,-2.129 -0.35,-4.16 -0.35,-6.117 -0.01,-13.871 5.55,-23.453 11.11,-29.391 5.55,-5.961 11.05,-8.41 11.24,-8.5 l 1.99,4.489" /><path
         id="path242"
         style="fill:#627493;fill-opacity:1;fill-rule:nonzero;stroke:none"
         d="m 5134.06,605.199 -0.16,0.082 c -0.95,0.449 -5.83,3 -10.4,8.289 -4.56,5.321 -8.85,13.282 -8.87,25.032 0,1.777 0.1,3.636 0.32,5.578 l -4.88,0.539 c -0.23,-2.117 -0.34,-4.16 -0.34,-6.117 -0.02,-13.864 5.55,-23.454 11.1,-29.391 5.55,-5.961 11.05,-8.402 11.25,-8.492 l 1.98,4.48" /><path
         id="path244"
         style="fill:#1c233a;fill-opacity:1;fill-rule:nonzero;stroke:none"
         d="m 5025.81,564.059 -16.07,0.961 32.33,-137.782 z" /><path
         id="path246"
         style="fill:#c6c8d3;fill-opacity:1;fill-rule:nonzero;stroke:none"
         d="M 5047.85,402.629 H 3806.14 v 260.16 l 1190.5,-41.961 51.21,-218.199" /><path
         id="path248"
         style="fill:#5f6264;fill-opacity:1;fill-rule:nonzero;stroke:none"
         d="m 4030.23,509.281 h 931.199 v 4.89844 H 4030.23 Z" /><path
         id="path250"
         style="fill:#5f6264;fill-opacity:1;fill-rule:nonzero;stroke:none"
         d="m 4933.44,620.27 51.2,-218.2 4.78,1.121 -51.21,218.2" /><path
         id="path252"
         style="fill:#f5806b;fill-opacity:1;fill-rule:nonzero;stroke:none"
         d="m 4005.68,531.711 44.4,99.949 h 145.32 l -41.43,-99.949 -37.79,-28.199 h -72.13 l -38.37,28.199" /><path
         id="path254"
         style="fill:#1c233a;fill-opacity:1;fill-rule:nonzero;stroke:none"
         d="m 4025.32,575.93 140.73,-15.899 7.4,15.899 z" /><path
         id="path256"
         style="fill:#1c233a;fill-opacity:1;fill-rule:nonzero;stroke:none"
         d="m 4005.68,531.711 c 0,0 56.97,-41.18 148.29,0 0,0 12.95,-13.891 55,-37.949 76.46,-43.75 112.89,-29.153 112.89,-80.301 h -357.49 c 0,0 -20.92,24.508 41.31,118.25" /><path
         id="path258"
         style="fill:#1c233a;fill-opacity:1;fill-rule:nonzero;stroke:none"
         d="m 4321.86,386.031 h -357.49 v 27.43 h 357.49 v -27.43" /><path
         id="path260"
         style="fill:#627493;fill-opacity:1;fill-rule:nonzero;stroke:none"
         d="m 3964.37,411 h 357.488 v 4.91016 H 3964.37 Z" /><path
         id="path262"
         style="fill:#627493;fill-opacity:1;fill-rule:nonzero;stroke:none"
         d="m 3974.67,476.398 c 0,0 0.5,-0.128 1.5,-0.457 3.5,-1.16 12.47,-4.711 20.42,-12.222 7.95,-7.528 14.97,-18.84 14.99,-36.199 0,-4.168 -0.41,-8.7 -1.33,-13.61 l 4.83,-0.898 c 0.97,5.179 1.41,10.019 1.41,14.508 0.03,21.441 -10.2,35.089 -20.31,43.031 -10.12,7.98 -20.09,10.551 -20.29,10.597 l -1.22,-4.75" /><path
         id="path264"
         style="fill:#627493;fill-opacity:1;fill-rule:nonzero;stroke:none"
         d="m 4252.64,475.02 c -0.09,0.011 -1.44,0.171 -3.71,0.171 -5.96,0 -18.38,-1.14 -30.71,-9.472 -12.34,-8.321 -24.35,-23.867 -29.49,-51.821 l 4.83,-0.886 c 5,26.957 16.23,41.047 27.41,48.648 11.2,7.582 22.6,8.629 27.96,8.629 1.02,0 1.81,-0.039 2.34,-0.078 l 0.75,-0.063 0.62,4.872" /><path
         id="path266"
         style="fill:#627493;fill-opacity:1;fill-rule:nonzero;stroke:none"
         d="m 4157.83,521.449 0.22,2.442 c -0.01,0 -30.15,2.621 -33.75,2.91 l -1.07,0.039 c -4.29,0.012 -7.99,-2.102 -10.5,-5.11 -2.53,-3.019 -3.99,-6.968 -4,-11.05 0,-1.34 0.16,-2.688 0.5,-4.032 l 0.02,-0.046 0.42,-1.403 0.02,-0.051 0.02,-0.058 c 2.47,-6.981 9.06,-10.801 15.65,-10.77 4.14,-0.011 8.38,1.469 11.73,4.578 l 26.48,24.512 -5.52,0.481 -0.22,-2.442 -1.66,1.801 -22.41,-20.75 c -2.4,-2.23 -5.41,-3.281 -8.4,-3.281 -4.8,0.023 -9.31,2.672 -11.03,7.511 l -2.31,-0.82 2.35,0.719 -0.41,1.351 -2.35,-0.718 2.38,0.609 c -0.24,0.918 -0.35,1.859 -0.35,2.809 -0.01,2.879 1.08,5.8 2.85,7.89 1.78,2.11 4.09,3.36 6.74,3.371 l 0.67,-0.031 c 3.56,-0.289 33.69,-2.898 33.72,-2.91 l 0.21,2.449 -1.66,1.801 1.66,-1.801" /><path
         id="path268"
         style="fill:#627493;fill-opacity:1;fill-rule:nonzero;stroke:none"
         d="m 4157.83,521.449 1.44,-1.988 c 0,0 3.35,2.41 6.92,5.027 1.78,1.313 3.63,2.672 5.14,3.813 1.54,1.168 2.66,2.027 3.3,2.64 0.93,0.868 2.17,1.34 3.52,1.34 2.63,-0.043 5.61,-1.711 6.82,-6.242 l 2.38,0.609 -2.4,-0.539 0.31,-1.379 2.4,0.54 -2.41,-0.469 c 0.25,-1.25 0.36,-2.43 0.36,-3.531 0,-2.711 -0.7,-4.891 -1.65,-6.239 -0.99,-1.371 -2.02,-1.91 -3.21,-1.929 l -2.11,0.57 -19.7,9.969 -1.11,-2.192 1.44,-1.988 -1.44,1.988 -1.1,-2.187 19.7,-9.973 c 1.41,-0.719 2.88,-1.09 4.32,-1.09 2.98,-0.019 5.6,1.641 7.23,4.02 1.66,2.39 2.53,5.519 2.53,9.051 0,1.429 -0.14,2.929 -0.45,4.48 v 0.031 l -0.32,1.41 -0.01,0.028 -0.01,0.043 c -1.6,6.429 -6.66,9.968 -11.57,9.929 -2.5,0 -4.99,-0.902 -6.89,-2.691 -0.22,-0.219 -1.43,-1.18 -2.89,-2.281 -4.45,-3.367 -11.96,-8.77 -11.97,-8.778 l -3.28,-2.359 3.61,-1.82 1.1,2.187" /><path
         id="path270"
         style="fill:#627493;fill-opacity:1;fill-rule:nonzero;stroke:none"
         d="m 4153.59,485.73 0.08,0.122 c 1.01,1.519 10.51,15.058 29.66,15.019 3.48,0 7.3,-0.441 11.48,-1.48 l 1.19,4.757 c -4.55,1.133 -8.77,1.633 -12.67,1.633 -11.51,0 -20.04,-4.34 -25.58,-8.672 -5.56,-4.328 -8.23,-8.629 -8.33,-8.8 l 4.17,-2.579" /><path
         id="path272"
         style="fill:#627493;fill-opacity:1;fill-rule:nonzero;stroke:none"
         d="m 4175.54,471.449 0.08,0.121 c 1.01,1.52 10.51,15.051 29.66,15.02 3.48,0 7.29,-0.442 11.47,-1.488 l 1.19,4.757 c -4.54,1.141 -8.77,1.641 -12.66,1.629 -11.51,0.012 -20.04,-4.328 -25.59,-8.66 -5.56,-4.328 -8.22,-8.637 -8.33,-8.797 l 4.18,-2.582" /><path
         id="path274"
         style="fill:#f0f0ee;fill-opacity:1;fill-rule:nonzero;stroke:none"
         d="m 3837.25,667.801 65.85,137.629 h -268.94 c -22.6,-71.782 -33.37,-223.899 -36.21,-270.27 -0.51,-4.512 -0.79,-9.078 -0.79,-13.719 0,-67.191 54.46,-121.652 121.65,-121.652 67.19,0 121.65,54.461 121.65,121.652 0,64.161 0,64.161 -3.21,146.36" /><path
         id="path276"
         style="fill:#f0f0ee;fill-opacity:1;fill-rule:nonzero;stroke:none"
         d="m 4409.72,1041.95 c 0,-67.188 -54.47,-121.661 -121.65,-121.661 -67.19,0 -121.66,54.473 -121.66,121.661 0,67.18 54.47,121.65 121.66,121.65 67.18,0 121.65,-54.47 121.65,-121.65" /><path
         id="path278"
         style="fill:#f0f0ee;fill-opacity:1;fill-rule:nonzero;stroke:none"
         d="m 3787.98,680.629 c 0,0 294.99,366.481 430.41,461.041 l 42.57,-127.35 -284.41,-517.75 c 0,0 -33.34,-117.371 -257.74,-96.781" /><path
         id="path280"
         style="fill:#f0f0ee;fill-opacity:1;fill-rule:nonzero;stroke:none"
         d="m 4187.7,1007.61 c 0,0 -97.21,-199.821 -189.7,-431.68 h 245.36 c 0,0 126.49,265.109 165.07,448.31 l -220.73,-16.63" /><path
         id="path282"
         style="fill:#878a8a;fill-opacity:1;fill-rule:nonzero;stroke:none"
         d="m 4000.25,574.941 c 0,0.008 2.29,5.2 6.37,14.457 28.59,64.801 145.15,328.543 179.56,399.082 l -4.41,2.149 c -39.45,-80.867 -186,-413.688 -186.01,-413.707 l 4.49,-1.981" /><path
         id="path284"
         style="fill:#878a8a;fill-opacity:1;fill-rule:nonzero;stroke:none"
         d="m 4022.61,629.211 h 246.242 v 4.91016 H 4022.61 Z" /><path
         id="path286"
         style="fill:#878a8a;fill-opacity:1;fill-rule:nonzero;stroke:none"
         d="m 4119.72,631.891 138.39,351.738 0.04,0.109 c 3.38,11.723 5.91,22.462 5.91,33.562 0,3.88 -0.31,7.81 -1,11.81 -1.29,7.4 -3.65,15.01 -7.97,21.47 -4.3,6.46 -10.67,11.73 -19.53,14.08 -6.35,1.7 -12.17,2.61 -17.69,2.61 -12.76,0.03 -23.71,-5 -35.02,-15.42 -11.35,-10.43 -23.37,-26.23 -39.12,-48.46 l 0.01,0.02 -266.7,-370.441 -0.08,-0.137 c 0,0 -0.56,-1.051 -1.74,-2.961 -4.12,-6.711 -15.53,-23.652 -33.84,-38.82 -18.32,-15.18 -43.43,-28.571 -75.19,-28.571 -26.24,0 -49.98,10.629 -67.17,27.821 -17.2,17.199 -27.83,40.937 -27.83,67.179 0,3.61 0.22,7.18 0.62,10.711 v 0.059 l 0.01,0.059 c 1.24,20.273 1.57,26.523 2.77,36.961 l -4.87,0.558 c -1.23,-10.59 -1.56,-16.988 -2.8,-37.219 l 2.45,-0.148 -2.44,0.277 c -0.41,-3.687 -0.65,-7.449 -0.65,-11.258 0.01,-55.179 44.73,-99.91 99.91,-99.91 37.94,0 66.76,18.321 85.98,36.489 19.24,18.191 29.03,36.293 29.11,36.441 l -2.16,1.16 1.99,-1.43 266.61,370.31 0.01,0.01 c 15.69,22.16 27.63,37.78 38.44,47.68 10.85,9.91 20.26,14.1 31.7,14.13 4.98,0 10.37,-0.82 16.42,-2.44 7.67,-2.06 12.92,-6.42 16.72,-12.07 3.79,-5.64 6.01,-12.62 7.21,-19.57 0.64,-3.72 0.93,-7.36 0.93,-10.98 0,-10.33 -2.37,-20.609 -5.72,-32.198 l 2.36,-0.68 -2.28,0.898 -138.36,-351.629 4.57,-1.8" /><path
         id="path288"
         style="fill:#1c233a;fill-opacity:1;fill-rule:nonzero;stroke:none"
         d="m 3816.9,1268.09 c 0,-48.23 -39.1,-87.33 -87.34,-87.33 -48.23,0 -87.33,39.1 -87.33,87.33 0,48.23 39.1,87.33 87.33,87.33 48.24,0 87.34,-39.1 87.34,-87.33" /><path
         id="path290"
         style="fill:#1c233a;fill-opacity:1;fill-rule:nonzero;stroke:none"
         d="m 3806.14,787.102 c 0,-48.231 -39.1,-87.332 -87.33,-87.332 -48.23,0 -87.33,39.101 -87.33,87.332 0,48.23 39.1,87.328 87.33,87.328 48.23,0 87.33,-39.098 87.33,-87.328" /><path
         id="path292"
         style="fill:#1c233a;fill-opacity:1;fill-rule:nonzero;stroke:none"
         d="m 3648.98,1301.79 c 0,0 -151.08,-419.841 6.64,-574.938 l 150.52,80.57 10.32,451.968 -167.48,42.4" /><path
         id="path294"
         style="fill:#1c233a;fill-opacity:1;fill-rule:nonzero;stroke:none"
         d="m 3972.28,1155.11 -230.22,-240.34 -12.5,-214.321 c 0,0 200.84,16.66 276.73,346.061 l 22.38,32.31 -56.39,76.29" /><path
         id="path296"
         style="fill:#1c233a;fill-opacity:1;fill-rule:nonzero;stroke:none"
         d="m 3669.67,718.871 h -48.49 c -16.66,0 -30.57,12.52 -32.5,29.07 -3.17,27.219 -1.17,70.77 28.65,118.508 l 52.34,-147.578" /><path
         id="path298"
         style="fill:#627493;fill-opacity:1;fill-rule:nonzero;stroke:none"
         d="m 3941.24,1124.38 62.01,-83.89 3.94,2.92 -62.01,83.89" /><path
         id="path300"
         style="fill:#627493;fill-opacity:1;fill-rule:nonzero;stroke:none"
         d="m 3808.38,987.539 -68.56,-78.07 3.68,-3.239 68.56,78.079" /><path
         id="path302"
         style="fill:#627493;fill-opacity:1;fill-rule:nonzero;stroke:none"
         d="m 3596.37,828.301 c 0.02,-0.09 4.75,-23.012 15.4,-48.391 10.7,-25.34 27.13,-53.371 51.64,-63.32 l 1.83,4.558 c -22.18,8.801 -38.53,35.723 -48.94,60.661 -5.23,12.453 -9.01,24.339 -11.49,33.113 -1.24,4.387 -2.15,7.988 -2.75,10.488 -0.6,2.512 -0.89,3.879 -0.89,3.879 l -4.8,-0.988" /><path
         id="path304"
         style="fill:#627493;fill-opacity:1;fill-rule:nonzero;stroke:none"
         d="m 3788.38,1155.17 -4.59,-201.158 188.33,197.178 53.62,-72.53 -21.77,-31.18 -0.1,-0.52 c 0,-0.02 -1.06,-5.74 -3.45,-15.77 -7.14,-30.11 -26.07,-98.639 -62.74,-164.151 l 4.28,-2.391 c 49.35,88.192 66.7,181.262 66.74,181.402 l -2.41,0.46 2.01,-1.41 23.48,33.64 -59.18,80.06 -183.62,-192.249 4.31,188.509 -4.91,0.11" /><path
         id="path306"
         style="fill:#627493;fill-opacity:1;fill-rule:nonzero;stroke:none"
         d="m 3969.46,1308.33 c -0.18,-13 0.34,-26.52 -5.63,-37.32 -5.59,-10.21 -15.48,-18.05 -26.53,-21.85 -6.27,-2.15 -12.95,-3.15 -19.76,-3.15 -20.14,-0.02 -41.44,8.79 -55.98,21.48 -14.61,12.71 -24.86,30.63 -29.24,49.53 l -1.73,7.58 -4.79,-1.09 1.74,-7.6 v 0 c 4.62,-19.86 15.33,-38.65 30.8,-52.13 15.48,-13.44 37.65,-22.66 59.2,-22.68 7.29,0 14.52,1.07 21.36,3.42 12.13,4.18 22.97,12.72 29.23,24.13 6.8,12.47 5.99,26.85 6.24,39.6 l -4.91,0.08" /><path
         id="path308"
         style="fill:#e05d52;fill-opacity:1;fill-rule:nonzero;stroke:none"
         d="m 1355.3,1889.91 -9.78,-111.2 110.26,-29.35 2.66,149.55 -103.14,-9" /><path
         id="path310"
         style="fill:#e05d52;fill-opacity:1;fill-rule:nonzero;stroke:none"
         d="m 1453.68,1713.82 c -9.69,-40.2 -50.13,-64.94 -90.33,-55.25 -40.2,9.69 -64.93,50.13 -55.24,90.33 9.68,40.2 50.12,64.93 90.32,55.24 40.2,-9.68 64.94,-50.13 55.25,-90.32" /><path
         id="path312"
         style="fill:#1c233a;fill-opacity:1;fill-rule:nonzero;stroke:none"
         d="m 1352.23,1853.68 90.7,-2.75 -91.6,-7.29 z" /><path
         id="path314"
         style="fill:#389b6e;fill-opacity:1;fill-rule:nonzero;stroke:none"
         d="m 1551.53,2135.77 -140.75,35.63 c 0,0 -38.42,-60.37 -68.41,-317.63 l 159.23,-4.5 49.93,286.5" /><path
         id="path316"
         style="fill:#389b6e;fill-opacity:1;fill-rule:nonzero;stroke:none"
         d="m 1466.98,2125.84 c 14.89,31.09 26.25,79.63 70.46,71.36 28.77,-5.38 57.32,-12.44 85.91,-18.65 10.81,-2.35 21.61,-4.69 32.41,-7.04 l 146.58,52.73 20.92,-391.07 -72.56,-186.3 c 0,0 -105.56,-9.79 -298.4,24.7 -24.12,338.91 -1.9,419.67 14.68,454.27" /><path
         id="path318"
         style="fill:#389b6e;fill-opacity:1;fill-rule:nonzero;stroke:none"
         d="m 1742.83,2146.58 c 0,-44.42 36.01,-80.43 80.43,-80.43 44.42,0 80.43,36.01 80.43,80.43 0,44.42 -36.01,80.42 -80.43,80.42 -44.42,0 -80.43,-36 -80.43,-80.42" /><path
         id="path320"
         style="fill:#389b6e;fill-opacity:1;fill-rule:nonzero;stroke:none"
         d="m 1743.23,2138.56 154.25,39.05 c 0,0 53.68,-52.34 86.54,-334.26 l -194.53,5.84 -46.26,289.37" /><g
         id="g322"><g
           clip-path="url(#clipPath328)"
           id="g324"><path
             id="path330"
             style="fill:#ffffff;fill-opacity:1;fill-rule:nonzero;stroke:none"
             d="m 1369.04,1599.88 h 1.3906 v 661.219 h -1.3906 z" /><path
             id="path332"
             style="fill:#ffffff;fill-opacity:1;fill-rule:nonzero;stroke:none"
             d="m 1419.12,1599.88 h 1.3906 v 661.219 h -1.3906 z" /><path
             id="path334"
             style="fill:#ffffff;fill-opacity:1;fill-rule:nonzero;stroke:none"
             d="m 1469.21,1599.88 h 1.3906 v 661.219 h -1.3906 z" /><path
             id="path336"
             style="fill:#ffffff;fill-opacity:1;fill-rule:nonzero;stroke:none"
             d="m 1519.29,1599.88 h 1.3906 v 661.219 h -1.3906 z" /><path
             id="path338"
             style="fill:#ffffff;fill-opacity:1;fill-rule:nonzero;stroke:none"
             d="m 1569.38,1599.88 h 1.3906 v 661.219 h -1.3906 z" /><path
             id="path340"
             style="fill:#ffffff;fill-opacity:1;fill-rule:nonzero;stroke:none"
             d="m 1619.46,1599.88 h 1.3906 v 528.004 h -1.3906 z" /><path
             id="path342"
             style="fill:#ffffff;fill-opacity:1;fill-rule:nonzero;stroke:none"
             d="m 1669.55,1599.88 h 1.3906 v 540.887 h -1.3906 z" /><path
             id="path344"
             style="fill:#ffffff;fill-opacity:1;fill-rule:nonzero;stroke:none"
             d="m 1719.64,1599.88 h 1.3906 v 661.219 h -1.3906 z" /><path
             id="path346"
             style="fill:#ffffff;fill-opacity:1;fill-rule:nonzero;stroke:none"
             d="m 1769.72,1599.88 h 1.3906 v 661.219 h -1.3906 z" /><path
             id="path348"
             style="fill:#ffffff;fill-opacity:1;fill-rule:nonzero;stroke:none"
             d="m 1819.81,1599.88 h 1.3906 v 661.219 h -1.3906 z" /><path
             id="path350"
             style="fill:#ffffff;fill-opacity:1;fill-rule:nonzero;stroke:none"
             d="m 1869.89,1599.88 h 1.3906 v 661.219 h -1.3906 z" /><path
             id="path352"
             style="fill:#ffffff;fill-opacity:1;fill-rule:nonzero;stroke:none"
             d="m 1919.98,1599.88 h 1.3906 v 661.219 h -1.3906 z" /><path
             id="path354"
             style="fill:#ffffff;fill-opacity:1;fill-rule:nonzero;stroke:none"
             d="m 1970.07,1599.88 h 1.3789 v 661.219 h -1.3789 z" /></g></g><path
         id="path356"
         style="fill:#e05d52;fill-opacity:1;fill-rule:nonzero;stroke:none"
         d="m 1773.8,1690.35 c 0,-38.15 30.93,-69.09 69.09,-69.09 38.15,0 69.08,30.94 69.08,69.09 0,38.16 -30.93,69.09 -69.08,69.09 -38.16,0 -69.09,-30.93 -69.09,-69.09" /><path
         id="path358"
         style="fill:#e05d52;fill-opacity:1;fill-rule:nonzero;stroke:none"
         d="m 1957.43,1844.14 c 0,-28.47 -21.16,-147.4 -59.89,-196.01 l -104.5,80.58 -3.55,120.48 167.94,-5.05" /><path
         id="path360"
         style="fill:#1c233a;fill-opacity:1;fill-rule:nonzero;stroke:none"
         d="m 1957.43,1844.14 -167.01,5.13 165.67,-22.93 z" /><path
         id="path362"
         style="fill:#1e4133;fill-opacity:1;fill-rule:nonzero;stroke:none"
         d="m 1710.43,2191.15 c 0.01,0 0.27,-0.72 0.71,-2.17 1.31,-4.33 3.97,-14.76 3.96,-27.62 0,-10.72 -1.83,-23.1 -7.74,-35.15 -1.23,-2.51 -3.71,-3.93 -6.23,-3.94 -1.25,0.01 -2.5,0.34 -3.66,1.09 l -1.41,-2.16 1.6,2.03 -41.83,32.83 -39.74,-28.74 -0.96,-0.32 -1.62,1.45 c -0.72,6.6 -1.63,17 -1.63,27.29 -0.01,8.44 0.63,16.85 2.37,22.84 l -4.98,1.43 c -1.96,-6.85 -2.56,-15.56 -2.57,-24.27 0,-10.59 0.93,-21.13 1.67,-27.86 0.4,-3.65 3.51,-6.07 6.76,-6.05 1.36,-0.01 2.78,0.42 3.99,1.3 l 36.58,26.45 38.86,-30.49 0.1,-0.07 c 2,-1.3 4.26,-1.92 6.47,-1.92 4.45,0 8.76,2.51 10.88,6.83 6.34,12.94 8.27,26.13 8.27,37.43 -0.01,18.09 -4.93,31.41 -4.99,31.59 l -4.86,-1.8" /><path
         id="path364"
         style="fill:#1e4133;fill-opacity:1;fill-rule:nonzero;stroke:none"
         d="m 1653.22,2153.28 c -0.02,-0.1 -8.07,-44.9 -11.18,-122.46 l 5.17,-0.2 c 1.55,38.64 4.33,69.1 6.72,89.88 1.19,10.4 2.29,18.38 3.09,23.75 0.8,5.37 1.29,8.1 1.29,8.11 l -5.09,0.92" /><path
         id="path366"
         style="fill:#1e4133;fill-opacity:1;fill-rule:nonzero;stroke:none"
         d="m 1792.07,1849.33 -7.98,144.54 -5.17,-0.28 7.98,-144.54" /><path
         id="path368"
         style="fill:#1e4133;fill-opacity:1;fill-rule:nonzero;stroke:none"
         d="m 1978.06,1892.5 -190.74,-5.68 0.15,-5.17 190.74,5.68" /><path
         id="path370"
         style="fill:#1e4133;fill-opacity:1;fill-rule:nonzero;stroke:none"
         d="m 1445.51,1854.24 c 0,0.03 -0.07,11.09 -0.14,26.26 -0.08,15.17 -0.15,34.42 -0.15,50.73 0,16.28 0.08,29.77 0.29,32.99 l -5.17,0.33 c -0.23,-3.67 -0.29,-16.96 -0.29,-33.32 0,-32.65 0.29,-77.02 0.29,-77.02 l 5.17,0.03" /><path
         id="path372"
         style="fill:#161e28;fill-opacity:1;fill-rule:nonzero;stroke:none"
         d="m 1701.51,2449.14 0.23,-1 c 1.37,-6.78 -0.77,-13.72 -1.31,-20.62 -0.92,-11.92 3.59,-22.7 9.77,-32.56 4.83,-7.71 14.71,-12.08 17.03,-21.41 1.48,-5.92 -1.03,-12.14 -4.45,-17.2 -3.42,-5.05 -7.77,-9.47 -10.72,-14.82 -1.13,-2.05 -2.06,-4.31 -2.01,-6.65 0.12,-6.28 6.68,-10.25 9.71,-15.75 3.72,-6.75 1.12,-16.25 -5.53,-20.16 -5.07,-2.99 -11.88,-3.02 -15.89,-7.34 -4.45,-4.8 -7.37,-35.9 -20.22,-20.59 -5.86,6.97 -6.59,22.98 -8.65,31.67 -3.67,15.5 -17.24,34.77 -20.91,50.27 0.38,11.27 0.76,22.54 1.15,33.81 0.24,7.16 1.1,14.6 0.73,21.75 -0.24,4.62 -3.04,8.63 -3.69,13.39 -0.71,5.28 -0.11,10.73 1.65,15.76 2.95,8.44 9.01,15.62 16.38,20.7 5.58,3.84 12.26,6.61 19.01,5.95 8.25,-0.8 15.63,-7.2 17.72,-15.2" /><path
         id="path374"
         style="fill:#e05d52;fill-opacity:1;fill-rule:nonzero;stroke:none"
         d="m 1704.47,2189.03 -32.52,112.58 c 7.03,0.65 9.55,2.65 12.32,7.51 4.57,8.01 5.84,25.72 5.41,34.94 -0.39,8.32 -3.12,16.67 -12.52,16.82 -12.04,0.18 -18.31,-9.45 -21.27,-16.4 l -7.39,71.97 -142.61,-15.6 c 0,0 2.74,-58.24 10.8,-142.74 0.44,-4.7 1.14,-9.43 2.45,-13.96 17.21,-59.57 90.5,-22.13 94.44,-19.85 l 5.66,-46.69 c 4.8,-14.33 52.22,-37.11 85.23,11.42" /><path
         id="path376"
         style="fill:#161e28;fill-opacity:1;fill-rule:nonzero;stroke:none"
         d="m 1655.28,2344.6 c -0.56,-3.05 -1.83,-5.93 -4.55,-8.66 -1.86,-1.86 -5,-2.73 -7.16,-1.23 -1.55,1.07 -2.2,3.01 -2.71,4.83 -1.3,4.69 -2.28,9.47 -2.94,14.29 -0.42,3.16 -0.73,6.41 -2.07,9.3 -1,2.14 -2.52,3.98 -4.11,5.73 -4.5,4.94 -9.68,9.32 -13.42,14.85 -3.74,5.54 -5.89,12.72 -3.48,18.96 2.77,7.17 11.09,12.04 18.22,13.51 1.42,0.29 20.17,2.89 20.14,3.77 0.46,-12.75 0.91,-25.5 1.36,-38.25 0.31,-8.59 0.61,-17.18 0.92,-25.77 0.14,-4.02 0.46,-7.79 -0.2,-11.33" /><path
         id="path378"
         style="fill:#040606;fill-opacity:1;fill-rule:nonzero;stroke:none"
         d="m 1677.16,2353.49 c -0.26,-0.05 -13.73,-5.85 -13.72,-24.51 0,-4.93 0.94,-10.71 3.26,-17.48 l 3.24,1.11 c -2.21,6.47 -3.07,11.88 -3.07,16.37 0.01,8.44 2.97,13.7 5.89,16.96 1.46,1.62 2.92,2.74 4,3.44 l 1.29,0.74 0.41,0.2 -1.3,3.17" /><path
         id="path380"
         style="fill:#040606;fill-opacity:1;fill-rule:nonzero;stroke:none"
         d="m 1668.22,2338.72 0.32,0.04 1.02,0.05 c 1.34,0.01 3.33,-0.27 4.84,-1.4 1.49,-1.14 2.82,-3.07 2.85,-7.38 0,-2.01 -0.32,-4.51 -1.1,-7.57 l 3.32,-0.85 c 0.84,3.28 1.21,6.05 1.21,8.42 0.03,5.04 -1.8,8.36 -4.24,10.13 -2.43,1.78 -5.14,2.07 -6.88,2.08 -1.12,0 -1.87,-0.13 -1.94,-0.15 l 0.6,-3.37" /><path
         id="path382"
         style="fill:#131312;fill-opacity:1;fill-rule:nonzero;stroke:none"
         d="m 1578.7,2325.4 c 0.64,-4.22 -0.95,-7.97 -3.55,-8.36 -2.61,-0.39 -5.23,2.71 -5.87,6.94 -0.64,4.23 0.95,7.97 3.55,8.36 2.61,0.39 5.23,-2.71 5.87,-6.94" /><path
         id="path384"
         style="fill:#131312;fill-opacity:1;fill-rule:nonzero;stroke:none"
         d="m 1527.41,2317.66 c 0.63,-4.23 -0.96,-7.97 -3.56,-8.37 -2.6,-0.39 -5.23,2.72 -5.86,6.94 -0.64,4.23 0.95,7.97 3.55,8.37 2.6,0.39 5.23,-2.72 5.87,-6.94" /><path
         id="path386"
         style="fill:#040606;fill-opacity:1;fill-rule:nonzero;stroke:none"
         d="m 1551.5,2293.91 -1.1,-0.26 c -0.7,-0.14 -1.65,-0.28 -2.6,-0.27 -1.24,-0.01 -2.43,0.24 -3.14,0.76 -0.7,0.54 -1.24,1.25 -1.27,3.19 -0.02,2.16 0.9,5.73 3.55,10.96 l -3.06,1.54 c -2.77,-5.5 -3.91,-9.44 -3.92,-12.5 -0.04,-2.71 1.05,-4.83 2.71,-5.97 1.63,-1.15 3.5,-1.41 5.13,-1.41 2.53,0 4.62,0.67 4.72,0.69 l -1.02,3.27" /><path
         id="path388"
         style="fill:#040606;fill-opacity:1;fill-rule:nonzero;stroke:none"
         d="m 1562.02,2341.46 c 7.69,5.94 16.22,5.83 23.83,-0.17 v -0.51 c -5.94,-0.2 -17.89,-0.12 -23.83,0.16 v 0.52" /><path
         id="path390"
         style="fill:#040606;fill-opacity:1;fill-rule:nonzero;stroke:none"
         d="m 1509.14,2332.55 c 5.49,8.02 13.63,10.55 22.73,7.19 l 0.15,-0.49 c -5.59,-2.02 -16.98,-5.63 -22.72,-7.2 l -0.16,0.5" /><path
         id="path392"
         style="fill:#1c233a;fill-opacity:1;fill-rule:nonzero;stroke:none"
         d="m 1613.58,2224.3 c 0,0 16.4,8.38 32.81,22.58 0,0 -15.97,-32.17 -31.6,-41.79 l -1.21,19.21" /><path
         id="path394"
         style="fill:#040606;fill-opacity:1;fill-rule:nonzero;stroke:none"
         d="m 1569.64,2266.9 c 0.11,-0.04 2.36,-0.78 5.59,-0.78 3.01,0 6.92,0.65 10.62,3.23 3.7,2.56 7.07,7.01 9.1,14.17 l -3.29,0.94 c -1.89,-6.59 -4.8,-10.23 -7.77,-12.3 -2.97,-2.07 -6.13,-2.61 -8.66,-2.61 -1.35,0 -2.51,0.16 -3.31,0.31 l -0.93,0.21 -0.27,0.08 -1.08,-3.25" /><path
         id="path396"
         style="fill:#161e28;fill-opacity:1;fill-rule:nonzero;stroke:none"
         d="m 1485.08,2383.89 c 0.97,0.05 1.97,0.02 3.02,-0.12 3.1,-0.42 5.67,-2.5 8.44,-3.97 6.57,-3.5 14.59,-3.54 21.73,-1.44 7.15,2.11 13.54,6.19 19.49,10.68 4.36,3.28 9.12,6.99 14.56,6.6 5.25,-0.38 9.37,-4.48 14.11,-6.77 9.85,-4.77 21.77,-1.36 31.29,4.03 10.14,5.74 21.69,17.85 34.17,16.41 13.16,-1.51 25.72,-4.57 38.57,-6.5 1.82,6.16 1.73,12.7 2.54,19.07 0.89,6.94 2.63,14.39 4.75,21.06 0.79,2.47 6.74,20.45 9.51,20.31 -12.69,0.65 -25.2,6.87 -34.04,15.86 -7.33,7.45 -11.94,16.75 -22.69,20.09 -4.59,1.43 -9.68,2.05 -14.13,0.24 -4.3,-1.74 -7.41,-5.47 -10.96,-8.46 -9.47,-7.98 -26.85,-13.83 -38.67,-8.56 -7.25,3.24 -13.12,9.71 -20.95,11.02 -6.39,1.07 -13.29,-1.89 -16.91,-7.27 -1.56,-2.33 -2.6,-5.1 -4.77,-6.87 -6.76,-5.5 -18.98,2.25 -24.9,-4.15 -1.62,-1.75 -2.25,-4.16 -3.25,-6.32 -3.12,-6.79 -11.1,-12.1 -18.3,-13.35 -2.79,-0.48 -5.65,-0.5 -8.45,-0.95 -6.57,-1.06 -12.89,-4.68 -16.27,-10.4 -3.39,-5.72 -3.35,-13.56 0.84,-18.72 3.15,-3.86 8.54,-6.58 8.99,-11.55 0.62,-6.7 -6.49,-12.45 -4.92,-19.23 1.22,-5.26 8.11,-10.36 13.05,-11.58 5.28,-1.29 9.4,0.63 14.15,0.84" /><path
         id="path398"
         style="fill:#d3493f;fill-opacity:1;fill-rule:nonzero;stroke:none"
         d="m 1218.94,991 c 0,0 122.17,105.72 161.17,93.02 87.63,-82.12 157.18,-192.711 205.63,-284.989 L 1454.64,696.66 1218.94,991" /><path
         id="path400"
         style="fill:#c6c8d3;fill-opacity:1;fill-rule:nonzero;stroke:none"
         d="M 1585.74,799.031 C 1637.39,700.66 1693.4,607.859 1693.4,607.859 l -7.08,-60 -75.81,-29.41 -155.87,178.211 131.1,102.371" /><g
         id="g402"><g
           clip-path="url(#clipPath408)"
           id="g404"><path
             id="path410"
             style="fill:#38795d;fill-opacity:1;fill-rule:nonzero;stroke:none"
             d="m 1478.8,655.559 134.84,108.011 -7.93,18.828 -140.23,-112.359 13.32,-14.48" /><path
             id="path412"
             style="fill:#38795d;fill-opacity:1;fill-rule:nonzero;stroke:none"
             d="m 1496.24,619.832 134.84,108.008 -7.93,18.84 -140.22,-112.371 13.31,-14.477" /></g></g><path
         id="path414"
         style="fill:#d3493f;fill-opacity:1;fill-rule:nonzero;stroke:none"
         d="m 1191.02,1060.19 c 0,-55.13 44.69,-99.819 99.81,-99.819 55.13,0 99.82,44.689 99.82,99.819 0,55.12 -44.69,99.81 -99.82,99.81 -55.12,0 -99.81,-44.69 -99.81,-99.81" /><path
         id="path416"
         style="fill:#6f9fda;fill-opacity:1;fill-rule:nonzero;stroke:none"
         d="m 1798.52,553.648 c 0,0 -3.87,30.864 -104.82,54.211 0,0 2.87,-57.211 -84.3,-87.437 0,0 -12.45,-25.094 -25.37,-67.801 -0.91,-3 -1.84,-5.871 -2.77,-8.68 -37.89,-18.519 -58.55,-28.089 -61.56,-48.14 l 0.48,-25.262 118.69,-0.309 177.01,165.071 -17.36,18.347" /><path
         id="path418"
         style="fill:#4975bf;fill-opacity:1;fill-rule:nonzero;stroke:none"
         d="M 1628.84,393.02 H 1519.7 v 5.562 h 106.97 l 169.96,157.109 3.78,-4.082 -171.57,-158.589" /><path
         id="path420"
         style="fill:#4975bf;fill-opacity:1;fill-rule:nonzero;stroke:none"
         d="m 1764.6,520.52 c -41.88,30.429 -17.29,70.691 -17.03,71.101 l 4.71,-2.961 c -0.92,-1.469 -22.03,-36.308 15.59,-63.64 l -3.27,-4.5" /><path
         id="path422"
         style="fill:#4975bf;fill-opacity:1;fill-rule:nonzero;stroke:none"
         d="m 1631.25,394.52 h -5.56 c 0,13.699 -4.59,25.289 -13.27,33.5 -10.32,9.761 -23.82,12.671 -32.98,12.191 l -0.31,5.551 c 10.39,0.578 25.51,-2.731 37.11,-13.703 9.82,-9.289 15.01,-22.27 15.01,-37.539" /><path
         id="path424"
         style="fill:#4975bf;fill-opacity:1;fill-rule:nonzero;stroke:none"
         d="m 1632.21,542.23 c -1.61,0 -3.82,-0.421 -5.56,-2.351 -1.54,-1.707 -10.96,-12.289 -16.55,-18.578 l 21.84,0.219 c 3.66,0.039 7.04,1.921 9.04,5.031 1.87,2.898 2.16,6.308 0.81,9.359 l -0.46,0.942 c -1.59,2.859 -4.76,4.949 -8.08,5.328 z m -34.61,-26.628 4.17,4.699 c 0,0 18.53,20.84 20.74,23.301 2.8,3.109 6.93,4.617 11.37,4.097 5.13,-0.578 9.84,-3.699 12.3,-8.14 l 0.7,-1.399 c 2.12,-4.789 1.68,-10.121 -1.22,-14.621 -3.02,-4.687 -8.12,-7.519 -13.66,-7.578 l -34.4,-0.359" /><path
         id="path426"
         style="fill:#4975bf;fill-opacity:1;fill-rule:nonzero;stroke:none"
         d="m 1586.6,513.648 c -1.49,0 -2.88,-0.847 -3.71,-2.269 -1.12,-1.891 -0.99,-4.359 0.35,-6.77 l 0.58,-0.98 c 2.61,-4.149 6,-5.801 8.06,-5.578 1.18,0.129 1.99,0.847 2.47,2.199 l 5.34,14.852 c -4.77,-0.622 -11.49,-1.454 -13.09,-1.454 z m 4.89,-21.179 c -4.42,0 -9.18,3.121 -12.37,8.191 l -0.75,1.25 c -2.31,4.18 -2.42,8.649 -0.27,12.289 1.82,3.09 5.07,5.012 8.5,5.012 h 0.01 c 1.47,0 11.13,1.219 16.87,2 l 4.53,0.598 -8.42,-23.438 c -1.21,-3.351 -3.8,-5.48 -7.11,-5.84 l -0.99,-0.062" /><path
         id="path428"
         style="fill:#4975bf;fill-opacity:1;fill-rule:nonzero;stroke:none"
         d="m 1593.5,480.02 -4.68,2.992 c 16.32,25.539 41.51,19.16 41.76,19.09 l -1.42,-5.372 c -0.88,0.231 -21.58,5.321 -35.66,-16.71" /><path
         id="path430"
         style="fill:#4975bf;fill-opacity:1;fill-rule:nonzero;stroke:none"
         d="m 1587.85,456.57 -4.68,2.989 c 16.32,25.55 41.51,19.171 41.76,19.101 l -1.42,-5.371 c -0.88,0.231 -21.58,5.32 -35.66,-16.719" /><path
         id="path432"
         style="fill:#e05d52;fill-opacity:1;fill-rule:nonzero;stroke:none"
         d="m 1415.35,1077.34 c 0,0 157.68,-35.23 170.69,-74.12 -13.8,-119.298 -61.26,-241.021 -106.55,-334.88 l -160.31,44.379 96.17,364.621" /><path
         id="path434"
         style="fill:#ffffff;fill-opacity:1;fill-rule:nonzero;stroke:none"
         d="M 1479.49,668.34 C 1431.2,568.281 1385.36,499.879 1385.36,499.879 l -47.56,-32.328 -74.68,32.64 56.06,212.528 160.31,-44.379" /><g
         id="g436"><g
           clip-path="url(#clipPath442)"
           id="g438"><path
             id="path444"
             style="fill:#38795d;fill-opacity:1;fill-rule:nonzero;stroke:none"
             d="m 1300.54,668.84 167.06,-44.031 10.42,17.582 -173.77,45.769 -3.71,-19.32" /><path
             id="path446"
             style="fill:#38795d;fill-opacity:1;fill-rule:nonzero;stroke:none"
             d="m 1282.22,633.559 167.06,-44.039 10.41,17.589 -173.76,45.77 -3.71,-19.32" /></g></g><path
         id="path448"
         style="fill:#6f9fda;fill-opacity:1;fill-rule:nonzero;stroke:none"
         d="m 1384.56,502.41 c 0,0 -38.43,-42.48 -121.44,-2.219 0,0 -26.55,-8.941 -65.88,-30.011 -71.51,-38.301 -104.68,-23.918 -106,-71.008 l 329.11,-9.211 c 0,0 19.08,24.551 -35.79,112.449" /><path
         id="path450"
         style="fill:#6f9fda;fill-opacity:1;fill-rule:nonzero;stroke:none"
         d="m 1090.54,373.922 329.1,-9.223 0.71,25.262 -329.11,9.211 -0.7,-25.25" /><path
         id="path452"
         style="fill:#4975bf;fill-opacity:1;fill-rule:nonzero;stroke:none"
         d="m 1420.27,387.18 -329.11,9.211 0.16,5.558 329.1,-9.211 -0.15,-5.558" /><path
         id="path454"
         style="fill:#4975bf;fill-opacity:1;fill-rule:nonzero;stroke:none"
         d="m 1373.14,390.77 c -8.1,51.128 37.76,62.21 38.22,62.312 l 1.24,-5.422 c -1.68,-0.39 -41.24,-10.101 -33.97,-56.019 l -5.49,-0.871" /><path
         id="path456"
         style="fill:#4975bf;fill-opacity:1;fill-rule:nonzero;stroke:none"
         d="m 1208.83,395.371 c -8.89,56.981 -50.02,53.84 -51.79,53.668 l -0.53,5.543 c 0.49,0.027 48.09,3.977 57.82,-58.352 l -5.5,-0.859" /><path
         id="path458"
         style="fill:#4975bf;fill-opacity:1;fill-rule:nonzero;stroke:none"
         d="m 1251.46,491.949 15.61,-15.289 c 2.61,-2.558 6.31,-3.609 9.94,-2.84 3.37,0.739 6,2.942 7.2,6.059 l 0.33,0.98 c 0.9,3.153 0.13,6.871 -1.95,9.481 -0.96,1.211 -3.1,3.242 -6.29,3.051 -2.29,-0.121 -16.43,-0.95 -24.84,-1.442 z m 23.19,-23.937 c -4.26,0 -8.38,1.636 -11.47,4.679 l -24.58,24.071 6.27,0.367 c 0,0 27.84,1.641 31.14,1.812 4.22,0.188 8.16,-1.652 10.93,-5.14 3.21,-4.031 4.34,-9.571 2.95,-14.461 l -0.5,-1.469 c -1.89,-4.891 -5.97,-8.34 -11.2,-9.48 -1.18,-0.25 -2.36,-0.379 -3.54,-0.379" /><path
         id="path460"
         style="fill:#4975bf;fill-opacity:1;fill-rule:nonzero;stroke:none"
         d="m 1226.47,504.34 -1.26,-0.16 c -2.13,-0.551 -3.78,-2.391 -4.54,-5.039 l -0.29,-1.11 c -1.08,-4.781 0.15,-8.351 1.76,-9.64 0.92,-0.743 2.01,-0.801 3.31,-0.192 l 14.27,6.731 c -3.82,2.941 -9.15,7.101 -10.28,8.23 -0.77,0.77 -1.83,1.18 -2.97,1.18 z m -2.67,-22.121 c -1.86,0 -3.62,0.621 -5.14,1.84 -3.67,2.953 -5.12,8.91 -3.7,15.203 l 0.36,1.429 c 1.31,4.571 4.41,7.809 8.49,8.868 3.47,0.902 7.14,-0.047 9.56,-2.469 1.05,-1.051 8.74,-7.008 13.34,-10.52 l 3.64,-2.781 -22.53,-10.617 c -1.34,-0.633 -2.71,-0.953 -4.02,-0.953" /><path
         id="path462"
         style="fill:#4975bf;fill-opacity:1;fill-rule:nonzero;stroke:none"
         d="m 1247.56,461.102 c -0.45,0.777 -11.47,19.019 -37.03,13.386 l -1.19,5.434 c 29.56,6.527 42.9,-15.801 43.03,-16.024 l -4.81,-2.796" /><path
         id="path464"
         style="fill:#4975bf;fill-opacity:1;fill-rule:nonzero;stroke:none"
         d="m 1226.99,448.52 c -0.46,0.781 -11.47,19.011 -37.03,13.39 l -1.19,5.43 c 29.57,6.519 42.9,-15.801 43.03,-16.031 l -4.81,-2.789" /><path
         id="path466"
         style="fill:#1c233a;fill-opacity:1;fill-rule:nonzero;stroke:none"
         d="m 1793.59,1671.57 c 0,0 41.44,-126.77 18.53,-266.65 -22.9,-139.89 -145.87,-439.33 -145.87,-439.33 l -256.12,91.93 -225.95,50.14 268.12,563.91 h 341.29" /><path
         id="path468"
         style="fill:#627493;fill-opacity:1;fill-rule:nonzero;stroke:none"
         d="m 1411.96,1056.89 129.9,379.05 -3.68,1.26 -129.89,-379.05" /><path
         id="path470"
         style="fill:#627493;fill-opacity:1;fill-rule:nonzero;stroke:none"
         d="m 1690.78,1028.58 -260.95,85.89 -1.21,-3.69 260.94,-85.88" /><path
         id="path472"
         style="fill:#627493;fill-opacity:1;fill-rule:nonzero;stroke:none"
         d="m 1429.59,1114.53 -222.26,42.95 -0.74,-3.82 222.27,-42.94" /><path
         id="path474"
         style="fill:#627493;fill-opacity:1;fill-rule:nonzero;stroke:none"
         d="m 1743.68,1670.97 c 0,-0.01 1.39,-4.25 3.5,-12.1 6.32,-23.52 18.99,-79.04 18.99,-146.03 0,-24.68 -1.72,-50.93 -6.11,-77.7 -10.11,-61.8 -42.47,-159.31 -72.29,-241.24 -14.91,-40.98 -29.18,-78.08 -39.73,-104.93 -5.28,-13.43 -9.62,-24.29 -12.64,-31.8 -3.02,-7.51 -4.72,-11.64 -4.73,-11.65 l 3.59,-1.48 c 0.02,0.09 109.19,265.8 129.63,390.48 4.43,27.01 6.16,53.46 6.16,78.32 -0.01,89.97 -22.65,159.22 -22.68,159.34 l -3.69,-1.21" /><path
         id="path476"
         style="fill:#627493;fill-opacity:1;fill-rule:nonzero;stroke:none"
         d="m 1766.96,1543.98 c -0.01,0 -0.54,-0.1 -1.63,-0.21 -1.09,-0.11 -2.7,-0.23 -4.7,-0.23 -9.45,0.01 -27.58,2.51 -43.45,19.56 -15.88,17.07 -29.71,49.01 -29.71,108.47 h -3.88 c 0,-60.01 13.95,-93.05 30.74,-111.11 16.8,-18.06 36.21,-20.81 46.3,-20.8 4.31,0 6.95,0.49 7.05,0.51 l -0.72,3.81" /><path
         id="path478"
         style="fill:#fde9b2;fill-opacity:1;fill-rule:nonzero;stroke:none"
         d="m 1296.14,2203.63 c 0,0 27.41,69.91 186.47,55.51 l -12.82,-15.44 -135.77,-46.25 -37.88,6.18" /><path
         id="path480"
         style="fill:#fde9b2;fill-opacity:1;fill-rule:nonzero;stroke:none"
         d="m 1296.14,2201.1 c 0,0 -13.73,51.06 -91.02,31.33 0,0 46.71,-29.82 48.92,-29.97 2.22,-0.15 42.1,-1.36 42.1,-1.36" /><path
         id="path482"
         style="fill:#5d8dd1;fill-opacity:1;fill-rule:nonzero;stroke:none"
         d="m 1277.79,2204.61 39.88,3.62 72.3,-232.34 -39.89,-3.62 -72.29,232.34" /><path
         id="path484"
         style="fill:#527bbb;fill-opacity:1;fill-rule:nonzero;stroke:none"
         d="m 1277.79,2204.61 -80.91,30.97 72.29,-232.34 80.91,-30.97 -72.29,232.34" /><path
         id="path486"
         style="fill:#6ea1db;fill-opacity:1;fill-rule:nonzero;stroke:none"
         d="m 1493.36,2262.46 -175.69,-54.23 72.3,-232.34 175.69,54.23 -72.3,232.34" /><path
         id="path488"
         style="fill:#e05d52;fill-opacity:1;fill-rule:nonzero;stroke:none"
         d="m 1376.91,1806.13 -103.34,158.58 -70.79,-19.13 c 0,0 37.44,-187.44 134.17,-274.85 l 39.96,135.4" /><path
         id="path490"
         style="fill:#e05d52;fill-opacity:1;fill-rule:nonzero;stroke:none"
         d="m 1193.82,1994.03 c 0,0 -20.54,54.79 -11.36,119.45 1.13,7.91 11.05,14.24 17.08,19.48 16.14,14.03 42.92,42.45 49.19,40.94 8.38,-2.02 10.72,-14.99 -29.58,-60.43 l 9.71,-81.5 -35.04,-37.94" /><path
         id="path492"
         style="fill:#e05d52;fill-opacity:1;fill-rule:nonzero;stroke:none"
         d="m 1221.11,2054.44 9.61,-31.73 c 0,0 65.07,43.29 65.41,53.79 0.17,5.25 -3.25,7.21 -6.72,7.86 -3.64,0.68 -7.39,-0.29 -10.45,-2.37 l -57.85,-27.55" /><path
         id="path494"
         style="fill:#e05d52;fill-opacity:1;fill-rule:nonzero;stroke:none"
         d="m 1186.55,2095.51 13.41,-21.87 c 0,0 86.57,49.89 87.88,60.32 0.65,5.21 -2.58,7.48 -5.97,8.44 -3.56,1.01 -11.04,-1.57 -14.28,-3.35 l -81.04,-43.54" /><path
         id="path496"
         style="fill:#e05d52;fill-opacity:1;fill-rule:nonzero;stroke:none"
         d="m 1198.33,2077.31 21.4,-28.97 c 0,0 78.57,56.99 79.88,67.41 0.65,5.21 -2.58,7.48 -5.97,8.45 -3.56,1.01 -11.04,-1.57 -14.28,-3.35 l -81.03,-43.54" /><path
         id="path498"
         style="fill:#e05d52;fill-opacity:1;fill-rule:nonzero;stroke:none"
         d="m 1247.17,2039.07 c 0,0 40.22,-10.65 26.4,-74.36 l -70.1,-22.27 -17.84,82.2 61.54,14.43" /><path
         id="path500"
         style="fill:#040606;fill-opacity:1;fill-rule:nonzero;stroke:none"
         d="m 1348.71,1846.27 c 0,0 1.38,-1.86 3.73,-5.18 7.06,-9.98 22.77,-33.09 35.41,-57.83 l 3.05,1.56 c -17.02,33.32 -39.41,63.46 -39.44,63.5 l -2.75,-2.05" /><path
         id="path502"
         style="fill:#040606;fill-opacity:1;fill-rule:nonzero;stroke:none"
         d="m 1260.04,2112.51 -58.14,-39.94 2.05,-2.98 58.14,39.94" /><path
         id="path504"
         style="fill:#040606;fill-opacity:1;fill-rule:nonzero;stroke:none"
         d="m 1244.57,2066.97 -20.92,-14.37 2.05,-2.98 20.92,14.37" /><path
         id="path506"
         style="fill:#e05d52;fill-opacity:1;fill-rule:nonzero;stroke:none"
         d="m 1482.61,2073.46 -17.86,-19.82 c 0,0 -39.02,47.94 -36.45,57.14 1.28,4.6 4.79,5.37 7.97,4.98 3.34,-0.4 6.33,-2.26 8.42,-4.9 l 37.92,-37.4" /><path
         id="path508"
         style="fill:#e05d52;fill-opacity:1;fill-rule:nonzero;stroke:none"
         d="m 1528.8,2123.7 -16.77,-18.85 c 0,0 -54.12,49.03 -53.58,59.35 0.27,5.16 3.79,6.79 7.24,7.14 3.62,0.36 7.22,-0.9 10.05,-3.19 l 53.06,-44.45" /><path
         id="path510"
         style="fill:#e05d52;fill-opacity:1;fill-rule:nonzero;stroke:none"
         d="m 1517.72,2107.96 -15.49,-17.41 c 0,0 -69.46,58.51 -68.96,68.05 0.25,4.77 3.5,6.28 6.7,6.6 3.34,0.34 9.62,-3.18 12.23,-5.29 l 65.52,-51.95" /><path
         id="path512"
         style="fill:#e05d52;fill-opacity:1;fill-rule:nonzero;stroke:none"
         d="m 1504.27,2093.56 -23.79,-22.48 c 0,0 -61.16,63.58 -60.66,73.12 0.25,4.77 3.5,6.28 6.7,6.6 3.34,0.33 9.62,-3.17 12.23,-5.29 l 65.52,-51.95" /><path
         id="path514"
         style="fill:#e05d52;fill-opacity:1;fill-rule:nonzero;stroke:none"
         d="m 1464.75,2053.64 c 0,0 30.91,-55.3 83.05,-81.37 l 52.27,68.77 -71.42,83.48 -63.9,-70.88" /><path
         id="path516"
         style="fill:#040606;fill-opacity:1;fill-rule:nonzero;stroke:none"
         d="m 1451.04,2133.47 48.5,-47.49 2.53,2.58 -48.5,47.49" /><path
         id="path518"
         style="fill:#040606;fill-opacity:1;fill-rule:nonzero;stroke:none"
         d="m 1440.36,2112.42 40.94,-42.59 2.61,2.5 -40.94,42.6" /><path
         id="path520"
         style="fill:#040606;fill-opacity:1;fill-rule:nonzero;stroke:none"
         d="m 1468.78,2145.25 46.16,-42.42 2.45,2.66 -46.17,42.42" /><path
         id="path522"
         style="fill:#e05d52;fill-opacity:1;fill-rule:nonzero;stroke:none"
         d="m 1600.07,2041.04 211.68,-219.85 11.51,-197.37 c 0,0 -113.35,34.87 -254.84,318.69 l -20.62,29.76 52.27,68.77" /><path
         id="path524"
         style="fill:#1c233a;fill-opacity:1;fill-rule:nonzero;stroke:none"
         d="m 1568.66,1942.03 64.8,65.04 -14.46,14.73 -62.8,-61.65 12.46,-18.12" /><path
         id="path526"
         style="fill:#ffffff;fill-opacity:1;fill-rule:nonzero;stroke:none"
         d="m 1582.68,1986.76 c 0,9.61 7.79,17.39 17.39,17.39 9.61,0 17.39,-7.78 17.39,-17.39 0,-9.6 -7.78,-17.39 -17.39,-17.39 -9.6,0 -17.39,7.79 -17.39,17.39" /><path
         id="path528"
         style="fill:#f89c21;fill-opacity:1;fill-rule:nonzero;stroke:none"
         d="m 1582.68,1986.76 h 1.3 c 0.01,8.89 7.2,16.08 16.09,16.1 8.89,-0.02 16.08,-7.21 16.1,-16.1 -0.02,-8.89 -7.21,-16.08 -16.1,-16.09 -8.89,0.01 -16.08,7.2 -16.09,16.09 h -1.3 -1.29 c 0,-10.32 8.36,-18.68 18.68,-18.68 10.32,0 18.68,8.36 18.68,18.68 0,10.32 -8.36,18.68 -18.68,18.68 -10.32,0 -18.68,-8.36 -18.68,-18.68 h 1.29" /><path
         id="path530"
         style="fill:#040606;fill-opacity:1;fill-rule:nonzero;stroke:none"
         d="m 1789.34,1842.01 c 0.01,0 1.97,-1.59 5.11,-4.31 9.41,-8.13 29.31,-26.54 37.2,-41.6 l 3.03,1.59 c -11.23,21.26 -43.11,46.89 -43.18,46.99 l -2.16,-2.67" /><g
         transform="scale(10)"
         id="g532"><text
           id="text538"
           style="font-variant:normal;font-weight:800;font-size:35.94749832px;font-family:Montserrat;-inkscape-font-specification:Montserrat-ExtraBold;writing-mode:lr-tb;fill:#ffffff;fill-opacity:1;fill-rule:nonzero;stroke:none"
           transform="matrix(1,0,0,-1,478.586,233.119)"><tspan
             id="tspan534"
             y="0"
             x="0 24.803703 45.544907 66.610283 89.903305 98.566391 119.34367 142.85345 166.14735 174.81049 184.26361 205.00578 225.78308 239.83775">Read and learn</tspan><tspan
             id="tspan536"
             y="34.905102"
             x="61.7211 94.289536 103.74364 118.01415 141.23584 149.89893 172.04253 186.31305 209.82286 231.10313 245.19492">with others</tspan></text>
</g><g
         transform="scale(10)"
         id="g540"><text
           id="text544"
           style="font-variant:normal;font-weight:500;font-size:18.71360016px;font-family:Montserrat;-inkscape-font-specification:Montserrat-Medium;writing-mode:lr-tb;fill:#fab927;fill-opacity:1;fill-rule:nonzero;stroke:none"
           transform="matrix(1,0,0,-1,609.8244,166.012)"><tspan
             id="tspan542"
             y="0"
             x="0 10.516588 22.848557 33.833942 38.399349 52.097576 63.51255 74.927528 85.988014 90.553421 103.61591 108.36882 120.57003">The Book Club</tspan></text>
</g><g
         transform="scale(10)"
         id="g546"><text
           id="text552"
           style="font-variant:normal;font-weight:normal;font-size:10.63059998px;font-family:Montserrat;-inkscape-font-specification:Montserrat-Regular;writing-mode:lr-tb;fill:#ffffff;fill-opacity:1;fill-rule:nonzero;stroke:none"
           transform="matrix(1,0,0,-1,569.944,140.631)"><tspan
             id="tspan548"
             y="0"
             x="0 6.1767488 12.841779 16.96677 23.386683 34.665974 37.451115 40.310482 47.518478 52.716717 59.871002 71.149315 73.934456 81.142456 87.807487 90.666855 97.332855 101.59555 104.38069 109.57893 112.43829 116.75376 119.5389 125.81136 137.1111 143.53198 147.9539 150.20779 152.99294 158.88258 165.54761">Lorem ipsum dolor sit amet, con</tspan><tspan
             id="tspan550"
             y="12.7559"
             x="23.769899 30.14826 36.526619 41.437893 45.55117 51.972054 56.288448 63.442738 69.863617 74.126305 76.911453 83.204407 90.41143 93.270798 100.47884 103.33821 108.53645 114.52179 117.38116 124.59892 131.89188 134.67702 141.0979 143.95728 146.81664 151.13205 153.91719 159.11641 165.53632">sectetuer adipiscing elit sed</tspan></text>
</g><g
         transform="scale(10)"
         id="g554"><text
           id="text558"
           style="font-variant:normal;font-weight:normal;font-size:11.26500034px;font-family:PublicSansRoman;-inkscape-font-specification:PublicSansRoman-Regular;writing-mode:lr-tb;fill:#3f68bb;fill-opacity:1;fill-rule:nonzero;stroke:none"
           transform="matrix(1,0,0,-1,648.193,87.8059)"><tspan
             id="tspan556"
             y="0"
             x="0 4.3759813 10.746078 13.607388 20.107368 22.844664 27.226479 33.7206 40.02919 42.766487 50.522331 53.749851 60.362137 67.081841">Join the Club!</tspan></text>
</g><g
         transform="scale(10)"
         id="g560"><text
           id="text564"
           style="font-variant:normal;font-weight:normal;font-size:10.71290016px;font-family:Montserrat;-inkscape-font-specification:Montserrat-Regular;writing-mode:lr-tb;fill:#ffffff;fill-opacity:1;fill-rule:nonzero;stroke:none"
           transform="matrix(1,0,0,-1,653.195,45.6691)"><tspan
             id="tspan562"
             y="0"
             x="0 11.066415 16.711927 23.42873 30.638699 34.934605 42.143593 47.382854 53.853565 58.06353 65.315491 71.635803 83.023514">@yourusername</tspan></text>
</g></g></g></svg>